<svg width="0" height="0" class="hidden">
  <symbol xmlns="http://www.w3.org/2000/svg" viewBox="0 0 36 36" id="icon-search">
    <path d="M36 34.1172L25.944 24.0611C28.3605 21.1601 29.5655 17.439 29.3084 13.6721C29.0513 9.90519 27.3518 6.38241 24.5635 3.83662C21.7751 1.29083 18.1127 -0.0819787 14.338 0.00378988C10.5633 0.0895584 6.96692 1.6273 4.29711 4.29711C1.6273 6.96692 0.0895584 10.5633 0.00378988 14.338C-0.0819787 18.1127 1.29083 21.7751 3.83662 24.5635C6.38241 27.3518 9.90519 29.0513 13.6721 29.3084C17.439 29.5655 21.1601 28.3605 24.0611 25.944L34.1172 36L36 34.1172ZM2.71076 14.6949C2.71076 12.3246 3.41361 10.0076 4.73045 8.03686C6.04728 6.06608 7.91894 4.53004 10.1088 3.62299C12.2986 2.71594 14.7082 2.47862 17.0329 2.94103C19.3576 3.40344 21.4929 4.54482 23.1689 6.22083C24.845 7.89684 25.9863 10.0322 26.4487 12.3569C26.9112 14.6816 26.6738 17.0912 25.7668 19.281C24.8597 21.4708 23.3237 23.3425 21.3529 24.6593C19.3821 25.9762 17.0651 26.679 14.6949 26.679C11.5176 26.6755 8.47142 25.4117 6.22472 23.1651C3.97802 20.9184 2.71428 17.8722 2.71076 14.6949Z" ></path>
  </symbol>
  <symbol xmlns="http://www.w3.org/2000/svg" viewBox="0 0 42 33" id="icon-youtube">
    <path d="M40.112 6.19136C39.8841 5.28269 39.4378 4.4542 38.8178 3.78882C38.1978 3.12343 37.4258 2.6445 36.579 2.39994C34.265 1.44055 11.8472 0.970516 5.34322 2.42677C4.49637 2.67142 3.72428 3.15052 3.10424 3.8161C2.48419 4.48169 2.03797 5.3104 1.81024 6.21926C0.765246 11.1375 0.686247 21.7702 1.83624 26.7989C2.06412 27.7076 2.51042 28.5361 3.13045 29.2015C3.75048 29.8668 4.52249 30.3458 5.36922 30.5903C9.95219 31.7225 31.7401 31.8813 36.605 30.5903C37.4518 30.3458 38.2238 29.8668 38.8438 29.2015C39.4638 28.5361 39.9101 27.7076 40.138 26.7989C41.252 21.4407 41.331 11.4669 40.112 6.19136V6.19136Z" stroke-width="2" stroke-linecap="round" stroke-linejoin="round"></path>
    <path d="M27 17L17 10.5V23.5L27 17Z" stroke-width="2" stroke-linecap="round" stroke-linejoin="round"></path>
  </symbol>
  <symbol xmlns="http://www.w3.org/2000/svg" viewBox="0 0 38 33" id="icon-twitter">
    <path d="M37 1.51681C37 1.51681 33.6978 3.50971 31.8618 4.07482C30.8763 2.91704 29.5665 2.09645 28.1097 1.724C26.6528 1.35156 25.1192 1.44525 23.7161 1.99239C22.3131 2.53953 21.1084 3.51373 20.2649 4.78323C19.4214 6.05272 18.9799 7.55627 19 9.09051V10.7624C16.1243 10.8386 13.2748 10.187 10.7053 8.86555C8.13576 7.54414 5.92597 5.59396 4.27273 3.18871C4.27273 3.18871 -2.27273 18.2358 12.4545 24.9234C9.0845 27.2606 5.06989 28.4326 1 28.2672C15.7273 36.6267 33.7273 28.2672 33.7273 9.04035C33.7273 8.57556 33.6815 8.11078 33.5964 7.65268C35.2655 5.97075 37 1.51681 37 1.51681Z" stroke-width="2" stroke-linecap="round" stroke-linejoin="round"></path>
  </symbol>
  <symbol xmlns="http://www.w3.org/2000/svg" viewBox="0 0 23 31" id="icon-pinterest">
    <path d="M12.2193 0.5C6.07321 0.5 0 4.61108 0 11.2648C0 15.4961 2.37197 17.9002 3.80953 17.9002C4.40277 17.9002 4.74395 16.2414 4.74395 15.773C4.74395 15.2143 3.3246 14.0238 3.3246 11.6975C3.3246 6.86521 6.99037 3.43882 11.7343 3.43882C15.8132 3.43882 18.832 5.76507 18.832 10.0387C18.832 13.2304 17.5564 19.2167 13.423 19.2167C11.9317 19.2167 10.6552 18.1349 10.6552 16.5847C10.6552 14.3123 12.2365 12.113 12.2365 9.76845C12.2365 5.79008 6.61182 6.51132 6.61182 11.3196C6.61182 12.3293 6.73736 13.4468 7.18684 14.3671C6.35976 17.9377 4.67111 23.2567 4.67111 26.935C4.67111 28.0707 4.83308 29.1891 4.94041 30.3248C5.14359 30.5537 5.042 30.5297 5.35347 30.4152C8.37235 26.2676 8.26501 25.4569 9.63069 20.0293C10.3677 21.4362 12.272 22.1931 13.7814 22.1931C20.1421 22.1931 23 15.9721 23 10.3647C23 4.39663 17.8602 0.501923 12.2183 0.501923L12.2193 0.5Z" ></path>
  </symbol>
  <symbol xmlns="http://www.w3.org/2000/svg" viewBox="0 0 15 31" id="icon-facebook">
    <path d="M3.82915 30.5V16.4231H0V11.3548H3.82915V7.02575C3.82915 3.62396 6.09105 0.5 11.3029 0.5C13.4131 0.5 14.9736 0.69665 14.9736 0.69665L14.8506 5.42963C14.8506 5.42963 13.2592 5.41457 11.5227 5.41457C9.64319 5.41457 9.34207 6.25652 9.34207 7.65395V11.3548H15L14.7538 16.4231H9.34207V30.5H3.82915Z" ></path>
  </symbol>
  <symbol xmlns="http://www.w3.org/2000/svg" viewBox="0 0 30 31" id="icon-instagram">
    <path d="M15 8.45918C13.6075 8.45918 12.2462 8.87212 11.0883 9.64577C9.93048 10.4194 9.02804 11.5191 8.49513 12.8056C7.96223 14.0921 7.8228 15.5078 8.09447 16.8736C8.36614 18.2394 9.03672 19.4939 10.0214 20.4786C11.0061 21.4633 12.2606 22.1339 13.6264 22.4055C14.9922 22.6772 16.4079 22.5378 17.6944 22.0049C18.9809 21.472 20.0806 20.5695 20.8542 19.4117C21.6279 18.2538 22.0408 16.8925 22.0408 15.5C22.0408 13.6327 21.299 11.8418 19.9786 10.5214C18.6582 9.20098 16.8673 8.45918 15 8.45918ZM15 20.7041C13.9707 20.7041 12.9646 20.3989 12.1088 19.827C11.253 19.2552 10.5859 18.4424 10.1921 17.4915C9.79817 16.5406 9.69511 15.4942 9.89591 14.4847C10.0967 13.4752 10.5924 12.548 11.3202 11.8202C12.048 11.0924 12.9752 10.5967 13.9847 10.3959C14.9942 10.1951 16.0406 10.2982 16.9915 10.6921C17.9424 11.0859 18.7552 11.753 19.327 12.6088C19.8989 13.4646 20.2041 14.4707 20.2041 15.5C20.2 16.879 19.6505 18.2003 18.6754 19.1754C17.7003 20.1505 16.379 20.7 15 20.7041ZM21.7347 0.5H8.26531C6.07321 0.5 3.9709 1.37081 2.42085 2.92085C0.870807 4.4709 0 6.57321 0 8.76531V22.2347C0 24.4268 0.870807 26.5291 2.42085 28.0791C3.9709 29.6292 6.07321 30.5 8.26531 30.5H21.7347C23.9268 30.5 26.0291 29.6292 27.5791 28.0791C29.1292 26.5291 30 24.4268 30 22.2347V8.76531C30 6.57321 29.1292 4.4709 27.5791 2.92085C26.0291 1.37081 23.9268 0.5 21.7347 0.5ZM28.1633 22.2347C28.1633 23.9397 27.486 25.5748 26.2804 26.7804C25.0748 27.986 23.4397 28.6633 21.7347 28.6633H8.26531C6.56034 28.6633 4.92521 27.986 3.71962 26.7804C2.51403 25.5748 1.83673 23.9397 1.83673 22.2347V8.76531C1.83673 7.06034 2.51403 5.42521 3.71962 4.21962C4.92521 3.01403 6.56034 2.33673 8.26531 2.33673H21.7347C23.4397 2.33673 25.0748 3.01403 26.2804 4.21962C27.486 5.42521 28.1633 7.06034 28.1633 8.76531V22.2347ZM24.4898 7.54082C24.4898 7.84354 24.4 8.13947 24.2318 8.39118C24.0637 8.64289 23.8246 8.83907 23.5449 8.95492C23.2652 9.07077 22.9575 9.10108 22.6606 9.04202C22.3637 8.98296 22.0909 8.83718 21.8769 8.62312C21.6628 8.40906 21.517 8.13633 21.458 7.83942C21.3989 7.54251 21.4292 7.23476 21.5451 6.95508C21.6609 6.67539 21.8571 6.43634 22.1088 6.26816C22.3605 6.09997 22.6565 6.0102 22.9592 6.0102C23.3651 6.0102 23.7544 6.17146 24.0415 6.45851C24.3285 6.74556 24.4898 7.13487 24.4898 7.54082Z" ></path>
  </symbol>
  <symbol fill="none" xmlns="http://www.w3.org/2000/svg" viewBox="0 0 29 30" id="icon-profile">
      <path d="M14.5 1.5C7.04395 1.5 1 7.54395 1 15C1 22.4561 7.04395 28.5 14.5 28.5C21.9561 28.5 28 22.4561 28 15C28 7.54395 21.9561 1.5 14.5 1.5Z" stroke="black" stroke-width="2" stroke-linecap="round" stroke-linejoin="round"></path>
      <path d="M4 23.5C4 23.5 7.02795 19.5812 14.4993 19.5812C21.9707 19.5812 25 23.5 25 23.5H4ZM14.4993 14.7618C15.5802 14.7618 16.6167 14.3266 17.381 13.5519C18.1453 12.7772 18.5746 11.7265 18.5746 10.6309C18.5746 9.53531 18.1453 8.4846 17.381 7.70991C16.6167 6.93522 15.5802 6.5 14.4993 6.5C13.4185 6.5 12.3819 6.93522 11.6177 7.70991C10.8534 8.4846 10.424 9.53531 10.424 10.6309C10.424 11.7265 10.8534 12.7772 11.6177 13.5519C12.3819 14.3266 13.4185 14.7618 14.4993 14.7618V14.7618Z" stroke="black" stroke-width="2" stroke-linecap="round" stroke-linejoin="round"></path>
  </symbol>
  <symbol xmlns="http://www.w3.org/2000/svg" viewBox="0 0 40 71" id="control-right-icon">
    <path d="M13.278 57.1123L13.5084 56.9145L13.3788 57.0081L13.924 56.4464C14.0058 56.3762 14.0863 56.3046 14.1656 56.2317C14.127 56.2649 14.0923 56.2858 14.0683 56.2964L14.2416 56.1151C14.7533 55.7425 15.916 54.7084 16.2752 54.4331C16.7283 54.0476 17.2653 53.5583 17.5876 53.2379C17.2856 53.532 16.8704 53.9084 16.9565 53.7583C17.536 53.1288 17.7311 52.7391 18.8835 51.7996L18.2588 52.4001L19.7952 51.1771C20.2302 50.6489 19.0284 51.7874 18.7852 51.9285C19.9418 50.9401 20.6707 49.8935 21.2927 49.5184C21.2945 49.3829 21.2984 49.1558 22.0204 48.4721C21.5837 49.0464 22.5 48.1071 22.1614 48.5973C22.4482 48.3969 22.9344 47.8029 23.0271 47.8131L22.9316 47.85C24.0429 46.565 24.6148 46.3449 25.1936 45.895C26.6841 44.5104 27.3108 43.8187 28.5148 42.6785C28.5152 42.5884 28.7123 42.1517 29.1957 41.6944C29.4809 41.5402 30.5891 40.5265 30.78 40.4976C29.9582 41.3559 30.0126 41.1081 29.4819 41.5844C29.1399 42.0775 29.5266 41.7022 28.9948 42.3131C29.4319 41.8277 31.1619 40.3056 31.5973 39.7325L31.4047 39.8971C32.178 39.0576 32.1359 38.7141 33.6249 37.5089L34.3272 36.9259C34.2877 36.9486 34.2746 36.943 34.2508 36.9523C34.7809 36.4323 34.9503 36.2207 35.1435 36.0052C35.1944 35.9483 35.2464 35.8923 35.2997 35.8374C35.3717 35.7636 35.4453 35.6912 35.5204 35.6202C35.6934 35.4559 35.9241 35.248 36.2863 34.9334C36.1746 35.0304 36.2235 34.9663 36.1118 35.0636C36.2556 34.9067 36.4048 34.7546 36.5593 34.6075C36.2745 34.33 36.0189 34.0533 35.7686 33.7788L35.4008 33.3752L35.0926 33.0429C34.7151 32.8079 35.1002 33.1778 35.2437 33.4101C34.0344 32.2925 32.8726 30.9484 32.2196 30.1601L31.4175 29.4616C31.8421 29.9252 32.3243 30.5272 32.1457 30.4331C31.7398 30.0151 31.8526 30.0628 31.2465 29.5025C31.3049 29.6416 31.5138 29.9206 31.7386 30.242C30.4398 29.1268 31.6166 29.8303 30.6263 29.1283C30.24 28.7569 30.0786 28.4802 30.0883 28.3895L29.3221 27.7806C29.3105 27.642 28.4522 26.8058 27.8972 26.2507C27.8566 26.1567 28.4225 26.6219 28.6111 26.8533C28.6208 26.7626 28.0441 26.1587 27.6566 25.7863C27.3766 25.7832 25.1456 23.3231 25.4396 23.9218C23.7479 22.2016 21.3224 19.8328 20.2344 18.6703C19.8182 18.3423 19.0458 17.6006 19.4428 18.109C18.0443 16.7599 17.4654 15.9265 16.0402 14.6235C15.908 14.5294 16.6661 15.2304 16.5708 15.2273C15.7194 14.2982 14.8621 13.6908 13.4919 12.2966C13.7263 12.5275 13.7666 12.6217 13.7851 12.6674C13.8327 12.669 13.2563 12.0648 12.9146 11.6919C12.6981 11.5059 13.1703 11.9709 13.038 11.8771C10.2527 9.31761 8.37004 7.13652 5.66041 4.53228C6.43419 5.27591 6.63446 5.64617 6.60496 5.69054L5.84703 4.96183C5.60141 4.63614 5.03331 4.08801 4.59285 3.59645C4.5174 3.55673 4.26777 3.35155 4.48168 3.60013C3.68823 2.92374 3.14683 2.32 2.5687 1.67015L2.12381 1.17221L2.06703 1.10866L2.03311 1.0577C2.00983 1.02457 1.98294 0.993761 1.97151 0.953848C1.93458 0.882353 1.91572 0.801946 1.9087 0.721151C1.90268 0.639774 1.91091 0.55549 1.93719 0.47547C1.95305 0.438076 1.96248 0.388282 1.98214 0.368907C1.99001 0.355471 1.99665 0.341403 2.00201 0.326862L2.00622 0.315043L2.02328 0.295474L2.0574 0.256142L2.12622 0.176509L2.13485 0.166435L2.13605 0.165271C2.0883 0.216422 2.12341 0.179027 2.11298 0.190265L2.11478 0.189103L2.1184 0.186584L2.13244 0.176509L2.16034 0.155778L2.21431 0.111214C2.23605 0.101528 2.2574 0.0910571 2.27833 0.0798255C2.32368 0.0495999 2.35639 0.0492135 2.3895 0.0321632C2.39733 0.0218942 2.44087 0.0178252 2.48121 0.0137563L2.6008 0L2.46556 0.00154918C2.44709 0.00251794 2.41338 0.000386644 2.40134 0.00426171C2.3718 0.0121907 2.34146 0.0169992 2.31084 0.0186005L2.24442 0.0441752C2.19345 0.0563817 2.1483 0.0871887 2.09773 0.119158L2.07806 0.130783L2.06783 0.136595L2.06301 0.139503L2.06161 0.140277L2.06101 0.140665C2.06924 0.131752 2.04134 0.161203 2.07946 0.120515L2.07666 0.123421L2.03071 0.169147C1.99955 0.200417 1.96838 0.231674 1.93719 0.262923C1.88181 0.33868 1.80314 0.477989 1.78528 0.626017C1.77317 0.77563 1.80174 0.925705 1.86816 1.06138C1.91051 1.12493 1.94221 1.18093 1.99799 1.24487L2.15191 1.42041L2.46936 1.78273L1.85652 1.3152L2.74709 2.33764C2.11699 1.81683 1.71786 1.24738 1.59505 1.17434C1.6083 1.22181 1.64663 1.27412 1.69057 1.3305L1.7582 1.41692L1.82402 1.48803C1.9091 1.58084 1.97773 1.66221 1.96348 1.68488C1.81618 1.55255 1.71083 1.46826 1.6115 1.33922C1.56054 1.284 1.53144 1.22394 1.50495 1.16814C1.47806 1.11253 1.45157 1.06235 1.44274 1.00771L1.40883 0.851546L1.40482 0.687243C1.3994 0.630086 1.41485 0.570023 1.42408 0.503759C1.4299 0.436914 1.45338 0.367356 1.48167 0.289854C1.38374 0.48477 1.34703 0.748276 1.42689 1.01546C1.46622 1.14741 1.52923 1.284 1.62756 1.40103C1.65004 1.4299 1.67592 1.46536 1.69759 1.48919L1.762 1.55952L1.89405 1.70212C2.27423 2.10873 2.66015 2.51029 3.05171 2.90669L5.25064 5.12052C5.42342 5.30865 5.12743 4.93568 5.10937 4.89034C5.58134 5.35515 5.91145 5.58882 6.48697 6.19178C6.79981 6.60932 6.15867 5.95967 5.85666 5.68027C5.84542 5.76979 5.99733 5.91045 6.31901 6.23596C6.45967 6.23809 8.15152 7.95785 8.66042 8.28606C10.3984 10.0062 8.19967 8.18744 9.9477 9.8171L10.5401 10.236C11.476 11.258 12.7115 12.556 13.8569 13.6294L13.6218 13.3973C13.4971 13.2117 13.7799 13.4442 13.9131 13.5393C14.7999 14.33 15.4699 15.1628 16.0661 15.5851C16.9545 16.6056 18.5137 18.2316 19.5824 19.3475C19.987 19.5362 18.2203 17.861 17.8228 17.3512L18.8347 18.3291C18.2103 17.7236 18.0028 17.4465 17.6871 17.0269C18.5939 17.8649 18.7942 18.2347 19.6087 19.0725C19.5716 18.9818 19.7014 19.0735 20.0901 19.4472L20.1309 19.6206C20.1435 19.622 20.1919 19.6584 20.3161 19.7698L21.7701 21.2557C21.423 20.9777 21.3473 21.0213 20.9598 20.6487C21.1384 20.7429 20.8186 20.4185 20.4305 20.0461C20.724 20.4172 20.0149 19.7189 19.9856 19.7629C20.7632 20.51 21.7067 21.439 22.1964 21.9484L22.4255 22.0462C23.181 22.7443 23.9259 23.5323 24.4457 23.9985L24.3216 23.8131C25.2281 24.6505 26.06 25.5334 26.9099 26.2335C27.6279 27.0678 28.5628 28.0881 29.1331 28.786C29.3964 29.1996 31.5578 30.9271 32.3334 31.9004C32.4024 31.9498 31.7829 31.249 31.5098 30.925C32.1158 31.4855 32.4849 32.0399 32.7576 32.1358C31.397 30.8785 32.8984 32.1379 32.3233 31.5349C32.945 32.1383 33.5865 32.7879 33.8613 33.1133C32.8533 32.1385 34.0997 33.575 33.1162 32.5523C33.4581 32.9495 33.8751 33.4002 34.323 33.8584L34.7574 34.2998C34.8649 34.405 34.9753 34.5073 35.0888 34.6065L35.0308 34.6695C35.1058 34.6695 35.0835 34.7243 34.9214 34.9109C34.9176 34.9148 34.7007 35.0192 34.7045 35.0155C34.6043 35.1217 34.7235 35.0376 34.8291 34.9692C34.9326 34.9026 35.0223 34.8516 34.789 35.0954C34.7041 35.155 34.6639 35.1787 34.4932 35.3333C34.3412 35.4699 34.1914 35.6088 34.0439 35.7499L33.1005 36.6679C32.4801 37.2733 31.9138 37.8075 31.6278 37.9176C30.9991 38.6558 33.0221 36.7041 32.0552 37.798C32.7281 37.2685 33.4995 36.3863 33.7866 36.2747C33.1635 36.8291 33.6407 36.5557 33.2554 36.9294L32.5348 37.5229L32.6793 37.3772C31.4779 38.3806 29.7417 40.1322 28.2973 41.5003C26.999 42.5868 26.0398 43.2719 24.5958 44.6846C25.0756 44.319 23.4373 45.8973 24.4453 45.1035C23.8174 45.796 23.1004 46.3861 23.0496 46.3627C23.6287 45.7787 23.2459 46.1502 23.7259 45.651C23.344 45.932 22.5702 46.683 22.2814 47.0193C22.4257 46.8734 22.3782 46.936 22.4251 46.9184C21.7491 47.63 22.0414 47.2018 21.5117 47.6765C21.4133 47.8943 20.4014 48.7815 19.9679 49.2634L19.2012 49.8288C19.6322 49.5275 18.5749 50.4755 18.5231 50.6315C17.9963 51.0591 17.5157 51.3803 16.7935 52.1089C17.1297 51.8444 16.1646 52.8027 16.2124 52.8734C15.0058 54.1502 13.9535 54.736 12.8424 55.9762C12.8937 55.9539 13.1753 55.7588 12.8404 56.1114C12.5478 56.3614 12.0722 56.8343 11.7706 57.1129L11.7816 57.1056L11.7646 57.1187C11.6169 57.2549 11.5183 57.3355 11.5003 57.3247C10.936 57.755 10.6153 57.948 9.57145 58.859C9.57526 58.7217 10.441 57.9375 10.8264 57.6084L11.2087 57.3712C11.4044 56.9806 12.1232 56.5233 12.3164 56.2689C11.5978 56.7262 9.91118 58.4128 8.8061 59.3345C9.33747 58.6352 10.6884 57.3016 11.892 56.1622L11.4086 56.709L12.0335 56.1081L11.5035 56.762C12.0812 56.179 12.6108 55.7043 13.1406 55.1847C12.5141 55.7869 12.366 56.1143 12.7045 55.7582C13.3332 55.02 13.4749 55.1002 14.003 54.5821C13.7131 54.8743 13.3288 55.2479 13.6167 55.0462C14.5834 53.9522 14.9213 53.7306 15.7872 52.723C15.7842 52.9488 16.9916 51.5822 17.2292 51.5355L16.7959 51.9726L17.8053 51.1325C18.5785 50.2044 16.9416 51.7814 18.1946 50.443C19.4006 49.256 19.4903 49.4037 20.4566 48.488C20.0729 48.7263 19.2549 49.4029 18.4846 50.1504L18.9192 49.667C18.6321 49.8677 17.5719 50.9074 17.043 51.4261C18.0024 50.651 16.6547 51.8475 16.3153 52.2939C16.1755 52.3011 16.7516 51.7649 16.0304 52.3586C16.6575 51.7556 16.7544 51.6725 17.5256 50.8799C15.8349 52.5706 15.7487 52.1521 14.3022 53.656C15.0246 53.0164 14.1563 53.9813 14.1052 54.0927C13.7715 54.3996 13.095 55.0225 12.8064 55.2688L12.9569 54.9388C12.0407 55.7439 11.9392 56.2329 10.8307 57.1129C10.6422 57.1842 11.6996 56.2366 11.5067 56.4011C10.0649 57.6773 9.72136 58.3066 8.5663 59.5608C8.46838 59.5999 8.42202 59.5277 7.94242 59.8933C8.13446 59.8185 7.8463 60.1535 8.37125 59.7278C7.98516 60.1473 7.4572 60.5757 7.07292 60.9035C7.89325 60.0465 6.64108 61.1612 6.44944 61.28C6.0168 61.7165 6.64148 61.205 6.93024 60.9583C6.59051 61.3162 6.25299 61.8051 5.96543 61.9169C6.01178 61.9887 7.11687 61.112 7.79111 60.4914L7.35707 60.9293C7.69359 60.664 7.74215 60.6003 8.17319 60.1659C7.78871 60.6274 7.88302 60.6363 8.0265 60.5809C8.07426 60.5179 7.98075 60.5974 8.0261 60.5369C8.36543 60.1795 8.65419 59.9328 8.60403 60.0431C9.00416 59.8135 8.16275 60.5672 7.96289 60.8382L7.40543 61.3453L5.30182 62.8732C4.48409 63.604 4.19252 64.0063 3.64027 64.6153L3.4083 64.7048C2.73044 65.3732 2.10596 66.0186 2.63332 65.6799C2.63472 65.6336 2.73064 65.5517 2.87612 65.4048C2.90542 65.3947 2.94636 65.3684 2.99512 65.3318C3.01358 65.3219 3.02542 65.3182 3.04127 65.3108L1.76743 66.4639C3.11432 65.3587 1.95605 66.5259 2.28816 66.4439C1.99231 66.7119 1.69646 66.9798 1.4006 67.2478L1.29084 67.3472L1.14776 67.5032L1.10843 67.5467C1.10442 67.55 1.09217 67.5669 1.08054 67.5836L1.04843 67.6304C1.00749 67.6915 0.973976 67.7473 0.947891 67.7934C0.895115 67.8866 0.871239 67.9406 0.874046 67.9377C0.933113 67.7978 1.00589 67.6636 1.09137 67.5371C1.09794 67.5279 1.10456 67.5188 1.11124 67.5097L1.14595 67.4617C1.16269 67.4375 1.17936 67.4132 1.19592 67.3888L1.20034 67.3819L1.20094 67.3811L1.25873 67.3193L1.25993 67.3175L1.26234 67.3144L1.27097 67.3034L1.28341 67.2856C1.29605 67.266 1.29284 67.2619 1.278 67.2697C1.27057 67.2736 1.26033 67.2803 1.24749 67.2894L1.23746 67.2968L1.23666 67.2974L1.17665 67.3613L1.17545 67.3625L1.17284 67.3648L1.16782 67.3695L1.14576 67.3906C1.11365 67.4224 1.07713 67.458 1.03217 67.5068C0.948296 67.6186 0.862206 67.7556 0.794983 67.8938C0.750031 68.0108 0.707291 68.1321 0.679398 68.2456C0.659531 68.3609 0.646889 68.469 0.638863 68.5574C0.655491 68.6131 0.667896 68.6699 0.675987 68.7273C0.692242 68.8135 0.702274 68.9276 0.748428 69.0569C0.768696 69.1218 0.791973 69.1915 0.818462 69.2644C0.851772 69.3345 0.890499 69.4078 0.93264 69.4833C0.974388 69.5623 1.02543 69.6363 1.08475 69.704C1.11445 69.7396 1.14495 69.7755 1.17565 69.8121L1.22341 69.866L1.22943 69.8726L1.30006 69.9342L1.3075 69.9404L1.32235 69.9528L1.44435 70.0545C1.52822 70.1142 1.65405 70.1884 1.76562 70.2436L1.85271 70.2851L1.92635 70.3102L2.07566 70.3566C2.17499 70.3893 2.27652 70.4044 2.37806 70.4141C2.58014 70.4436 2.7788 70.4207 2.9594 70.3936C3.138 70.3498 3.30295 70.304 3.43238 70.2293L3.34509 70.2498C3.46489 70.1855 3.60135 70.1219 3.71894 70.0187C3.77914 69.9706 3.84415 69.9162 3.90054 69.865L3.99566 69.7691L4.41626 69.3578C4.70238 69.0834 4.99312 68.8135 5.28837 68.5483C5.28837 68.5932 6.05553 68.0718 6.438 67.8347C5.58957 68.7038 6.13639 68.2299 6.10931 68.3392C6.196 68.2481 6.35774 68.0902 6.38563 68.0805C6.53051 67.9788 6.24215 68.27 6.24035 68.3159C5.75954 68.749 5.27774 69.194 4.85653 69.5651C4.66779 69.7327 4.47496 69.896 4.2782 70.0549L4.12569 70.1742C4.036 70.2432 3.94709 70.3048 3.86221 70.3583C3.68863 70.46 3.51626 70.5216 3.37639 70.5633C3.57185 70.461 3.75666 70.3703 3.90676 70.2477C3.98121 70.1919 4.0677 70.1237 4.12569 70.0754L4.22823 69.9927C4.36629 69.8832 4.51037 69.771 4.65546 69.6029C4.51545 69.7055 4.37975 69.8135 4.2487 69.9266C4.21378 69.957 4.17826 69.9877 4.14235 70.0192L4.07773 70.0758L3.95472 70.175C3.79177 70.3118 3.59351 70.4143 3.38301 70.5057C2.92455 70.68 2.41882 70.7009 1.94662 70.565C1.88422 70.547 1.82181 70.5276 1.7596 70.5063C1.60328 70.439 1.45358 70.3582 1.31231 70.2649C1.29023 70.2506 1.28381 70.2453 1.27919 70.2417L1.26054 70.2271L1.22301 70.1981L1.14736 70.139L1.13793 70.1314L1.13311 70.1275L1.04421 70.0498L1.0398 70.0452L1.00468 70.0074L0.935249 69.9301C0.843544 69.8247 0.754047 69.7164 0.688229 69.5879L0.620804 69.4901C0.57016 69.4183 0.527317 69.3417 0.492973 69.2615C0.453239 69.1745 0.417122 69.0844 0.391838 69.0162C0.368359 68.9478 0.35973 68.9003 0.35973 68.9003L0.349899 68.7994C0.346489 68.7348 0.334049 68.6428 0.341473 68.5331C0.350601 68.408 0.366875 68.2835 0.390232 68.1602C0.428963 68.0242 0.466892 67.8926 0.533512 67.7432C0.596035 67.6177 0.668282 67.4969 0.749634 67.3819L0.789364 67.3272C0.805019 67.3059 0.802807 67.3111 0.810432 67.3018L0.927425 67.1747L1.01451 67.0819L1.02134 67.0759L1.03458 67.0639L1.05906 67.0422C1.07238 67.0304 1.08562 67.0185 1.0988 67.0066C1.12087 66.9868 1.13372 66.9758 1.13372 66.9758C1.08916 67.0112 1.05264 67.0381 1.02073 67.0602L1.0089 67.0682L1.00327 67.0721L1.00288 67.0722L0.921005 67.1596L0.920197 67.1602L0.918999 67.1614L0.916187 67.1635L0.896118 67.1792L0.859196 67.2067L0.791367 67.253L0.756657 67.277C0.741207 67.2904 0.705082 67.3354 0.678394 67.3689C0.619999 67.4431 0.554985 67.5345 0.485954 67.6554L0.434784 67.751L0.399063 67.8374C0.374981 67.8984 0.350296 67.9668 0.326015 68.0433C0.243942 68.3442 0.156052 68.8143 0.400463 69.4287C0.359528 69.3581 0.262608 69.1671 0.22448 68.8854C0.207222 68.7438 0.188759 68.5818 0.211834 68.4051C0.220192 68.3134 0.232986 68.2221 0.250164 68.1315C0.274445 68.0389 0.303345 67.9436 0.336857 67.8476C0.376389 67.6868 0.590096 67.3371 0.699661 67.209L0.794582 67.1034L0.908958 66.98L0.935452 66.9558L0.98843 66.907C1.12529 66.7815 1.25838 66.6523 1.38756 66.5195L1.72026 66.3476C1.57879 66.4009 2.63893 65.3612 1.821 66.0374C1.50668 66.3116 1.1923 66.5858 0.877857 66.8599L0.850567 66.8835L0.837322 66.8952L0.830704 66.9008L0.829098 66.9023L0.72916 67.0089L0.726154 67.012L0.63726 67.1067L0.597927 67.1488C0.59692 67.1476 0.568829 67.1858 0.555786 67.2034L0.508827 67.2691C0.449028 67.3551 0.40107 67.434 0.363747 67.4995C0.288895 67.6326 0.25679 67.7089 0.260201 67.7035C0.255989 67.7095 0.287487 67.6217 0.351101 67.4904C0.38731 67.4158 0.426746 67.3428 0.469299 67.2714L0.578465 67.0978L0.664345 66.9572L0.769299 66.8446L0.770699 66.8428L0.773113 66.8395L0.777927 66.8332L0.786758 66.8215C0.792175 66.8144 0.797188 66.808 0.801003 66.8025C0.808826 66.7921 0.813648 66.7863 0.813648 66.7863L0.767895 66.8289L0.762474 66.8341L0.652103 66.9517L0.640671 66.9645L0.615383 66.9936C0.597122 67.0143 0.576855 67.0379 0.554379 67.0633L0.537323 67.0831L0.528694 67.0932C0.526485 67.0953 0.523273 67.099 0.512035 67.1143C0.392616 67.2749 0.289597 67.4464 0.204414 67.6262C0.157455 67.7366 0.127357 67.8341 0.0936432 67.9449L0.049099 68.109C0.0394669 68.1646 0.0316391 68.2208 0.0246124 68.2774C-0.049633 68.731 0.0563202 69.1892 0.179733 69.5099C0.250771 69.6672 0.322609 69.7947 0.373978 69.8817C0.423744 69.9704 0.462475 70.0134 0.462475 70.0134L0.441605 69.9824C0.427959 69.963 0.410702 69.9338 0.392239 69.8972C0.354313 69.8247 0.306156 69.7263 0.263615 69.6269C0.223274 69.5369 0.191761 69.4435 0.169495 69.3479L0.138794 69.2183C0.162876 69.3054 0.189564 69.3897 0.218056 69.4705C0.24836 69.5504 0.288494 69.6248 0.325619 69.6978C0.363747 69.7705 0.403278 69.8398 0.443413 69.9059C0.485153 69.9706 0.53331 70.0283 0.578861 70.0857C0.625015 70.1425 0.67157 70.1963 0.717922 70.2475L0.75264 70.2853L0.769897 70.3037L0.774315 70.3081L0.776524 70.3104L0.891907 70.4114L0.895924 70.4147L0.92662 70.4395C0.967358 70.4716 1.00568 70.5019 1.0414 70.5306C1.24468 70.6763 1.55352 70.8357 1.71064 70.877C1.88261 70.9276 2.03291 70.9702 2.16616 70.982C2.43425 71.0103 2.62228 71.0031 2.76897 70.9752C2.91565 70.9496 3.02181 70.9301 3.12334 70.889C3.22549 70.8514 3.32663 70.8115 3.46027 70.7561C3.5877 70.6898 3.75846 70.6115 3.96495 70.4637C4.01971 70.4224 4.07358 70.3799 4.1265 70.3364L4.21379 70.2628L4.25874 70.2234L4.2798 70.2033L4.45699 70.0365C4.63165 69.8768 4.80872 69.7196 4.98817 69.5649C5.61024 69.1448 6.18837 68.606 7.20055 67.5847C6.43078 68.2875 7.05767 67.5952 6.72155 67.8149C7.44636 67.0397 7.78128 66.8653 8.21413 66.5179C8.35941 66.2823 8.45734 66.1099 7.78229 66.7754C7.59346 66.758 8.69774 65.926 8.65339 65.763C10.9169 63.5837 10.8088 64.3465 13.3179 61.6667L13.1759 61.721C14.9072 60.1525 15.8239 59.1683 17.4114 57.7008L18.5255 56.4141C18.2351 56.6619 17.4178 57.2933 17.7084 56.9108C17.224 57.5923 16.5537 58.1646 15.972 58.8408C15.8779 58.8765 16.1183 58.6042 16.2142 58.4773C15.8281 58.8519 15.6836 59.0871 15.1535 59.5622C15.1555 59.5164 15.6852 58.9516 15.2518 59.3444L14.6247 60.0812C13.6621 60.9481 14.0036 60.3662 12.9425 61.4513C13.2062 61.3137 13.7089 60.9979 14.1465 60.6036C13.6605 61.0984 14.8487 59.9964 14.4295 60.4713C13.6204 61.0789 13.3444 61.4828 12.3319 62.3518C12.4567 62.2555 12.5038 62.2437 12.7448 62.0219L11.3953 63.3983C11.6859 63.016 10.1913 64.4492 10.2423 64.2491C11.6885 62.7901 11.3012 63.2553 12.9419 61.5855C12.4472 62.029 11.7525 62.5462 11.3911 62.7537C11.3795 62.7707 11.3576 62.7967 11.3072 62.848C10.9723 63.0218 11.2141 62.7484 11.0739 62.6227C11.9394 61.9728 12.3742 61.3999 13.3368 60.5774C13.5814 60.4842 12.905 61.1769 12.4348 61.5937L13.2832 60.8694L13.0918 60.9884L15.0955 59.0059C14.7072 59.3732 14.5336 59.4577 14.3008 59.6203C14.5597 59.3647 14.7993 59.0954 15.0535 58.8087C15.0662 58.9328 15.1527 58.9456 15.4067 58.698C16.695 57.4216 17.3572 56.6595 17.7582 56.1166L17.9151 55.9748C17.7688 56.256 18.9722 55.2056 19.4506 54.8865C19.3557 54.8338 20.0783 54.1938 20.4162 53.7935C20.7026 53.6833 20.5541 54.0557 20.1662 54.5656C19.205 55.342 19.5925 54.9665 19.0639 55.2616L17.5739 56.5569L17.9588 56.3176C17.2826 57.029 16.5134 57.5971 16.6543 57.633C17.0871 57.3299 17.6674 56.6998 18.0975 56.3997L17.6628 56.8826C18.5751 56.1709 18.0012 56.3929 19.0607 55.4879C18.7691 55.9157 19.1566 55.4058 19.635 55.0419C19.3446 55.4246 17.8555 56.7184 18.2845 56.5532C18.8598 56.1062 19.8802 54.7206 20.6954 54.1812L20.6472 54.1996C21.6439 53.2049 22.0735 52.9321 22.4994 52.6107C22.8887 52.154 23.5428 51.6359 24.015 51.1889L23.9661 51.1637L24.6411 50.5422C24.259 50.7795 23.8701 51.2901 23.2938 51.8275L23.2946 51.6923C22.7243 52.4026 22.163 52.7017 21.5968 53.1328C22.3942 52.4795 23.661 51.1069 23.9701 51.0711L24.3558 50.5631L24.5994 50.3769C24.8863 49.9979 24.4567 50.2529 23.7822 50.8737C23.6855 51.0012 23.6368 51.0647 23.6861 51.0453C23.3492 51.3106 23.0143 51.5295 22.2907 52.2594L22.7221 51.9137C21.8061 52.8079 20.9416 53.5907 20.5579 53.8292C21.8586 52.5171 23.1604 51.2486 24.4121 50.046C24.9377 49.8421 25.4631 49.5056 25.797 49.4655C26.6619 48.6827 27.8195 47.6037 28.4936 46.8494L28.3978 46.886C28.7031 46.566 29.0251 46.2613 29.3627 45.9731C29.6994 45.5737 29.0285 46.1465 29.2691 45.8739L30.5183 44.7625C30.378 44.77 29.3681 45.7448 28.8837 46.2034C28.9798 46.1213 29.1734 45.9556 29.1237 46.0209C28.5931 46.5857 27.4412 47.4803 27.2932 47.8083C27.0046 48.0546 27.9158 47.3435 27.0008 48.2367C26.4206 48.8664 26.1343 48.977 26.0412 49.0115C25.9936 48.985 26.9568 48.0284 26.5723 48.3121C27.0566 47.8536 27.296 47.7159 27.8731 47.0889C27.3933 47.5434 26.6717 48.0933 26.4768 48.3938C25.4671 49.2337 25.4259 48.9336 25.8594 48.4963C25.809 48.6515 27.6415 46.9068 26.4812 48.166C27.1057 47.7 28.1175 46.7242 28.8859 46.0676L28.8387 46.0858L29.7554 45.2349C29.6091 45.3379 29.3205 45.5844 29.2744 45.5569L30.62 44.4517C29.8517 45.0632 31.0077 43.9871 31.2969 43.6502C31.4875 43.5767 32.0159 43.1477 31.5821 43.63C31.099 44.1766 31.2455 43.8947 30.7641 44.3512L31.5301 43.7864L31.5792 43.7218L32.0601 43.401C32.9749 42.5074 31.4859 43.6228 32.7373 42.5545L32.6847 42.8C34.0348 41.4677 35.6741 39.6656 36.6853 38.7794C36.3618 38.9809 36.1523 39.0049 36.4633 38.5988C36.0648 39.0171 35.2256 39.8206 34.6196 40.3873C34.5227 40.5152 35.4841 39.783 36.1104 39.1363C35.9617 39.599 34.3806 40.6136 34.4719 40.8489C32.8794 42.4996 33.079 41.8823 31.7759 43.3305C31.6818 43.277 31.3411 43.6798 31.2014 43.6874C31.4942 43.1689 33.0789 41.8825 33.9455 40.9632C33.851 41.0438 33.6608 41.206 33.6116 41.2261C34.2397 40.5772 34.5251 40.3341 35.0069 39.9223L34.9585 39.9861C35.825 39.2905 35.3936 39.4581 35.8278 38.9755C36.0199 38.8114 36.6476 38.1636 36.598 38.3175L37.3726 37.4324L37.4153 37.5523C37.8971 37.0964 37.9465 36.9426 38.4297 36.5741L38.5244 36.6268L37.3657 37.7957C37.9906 37.2396 37.6047 37.7031 38.2802 37.0811C37.8708 37.3975 37.9908 37.2617 38.2136 37.0296C38.3249 36.9133 38.462 36.7734 38.5714 36.6539C38.6189 36.6027 38.6645 36.5498 38.708 36.4954C38.7227 36.4766 38.7365 36.4571 38.7494 36.4371C38.7626 36.421 38.7733 36.403 38.7809 36.3838C38.895 36.2846 39.0094 36.1854 39.1168 36.0816L39.3407 35.8531L39.4537 35.7375C39.4914 35.6987 39.5155 35.6541 39.5472 35.6125L39.4645 35.7198L39.3624 35.8181L39.4505 35.7006L39.5133 35.5875C39.5528 35.5154 39.5972 35.454 39.6195 35.386L39.7001 35.2004C39.7228 35.1397 39.7375 35.0777 39.7573 35.0163C39.8027 34.894 39.8147 34.76 39.833 34.6003C39.8304 34.5203 39.8256 34.4331 39.8167 34.3368C39.8027 34.2413 39.7724 34.1388 39.7447 34.0235L39.83 34.3124C39.8458 34.4089 39.8595 34.5036 39.8715 34.5974C39.8729 34.691 39.8687 34.7836 39.8647 34.8758C39.8567 34.9675 39.8342 35.056 39.8191 35.1463C39.7744 35.3226 39.7142 35.4987 39.6122 35.6613C39.5719 35.7473 39.5025 35.8243 39.4357 35.905L39.2266 36.1531L38.8381 36.516C38.7506 36.5935 38.6655 36.6655 38.568 36.7461L38.7937 36.5594C38.8226 36.5367 38.9139 36.4536 38.9886 36.3865L39.2384 36.1606C39.4136 35.9665 39.6231 35.7634 39.7509 35.5263C39.8715 35.2845 39.963 35.0239 39.9871 34.7712C40.0481 34.2624 39.8773 33.8456 39.8001 33.6672C39.6913 33.4033 39.4662 33.2047 39.2847 33.004C39.1068 32.817 38.8822 32.5785 38.8015 32.5202C38.5776 32.3258 38.3526 32.1402 38.1094 31.9137C38.5529 32.3708 38.416 32.3479 38.4046 32.4262C38.399 32.4653 38.4247 32.5297 38.57 32.6918L38.9855 33.1369L39.3536 33.5207C39.4134 33.5969 39.4611 33.6839 39.5207 33.7724C39.5627 33.8695 39.6142 33.9702 39.6502 34.083C39.6546 34.0113 39.5334 33.7242 39.4461 33.635C39.6219 33.7825 39.8294 34.2173 39.7772 34.7263C39.7601 34.9797 39.6594 35.2345 39.5358 35.4615C39.4027 35.6834 39.1985 35.8642 39.0383 36.0308L38.6731 36.3427C38.7225 36.2474 38.6043 36.3299 38.5876 36.3203C38.5774 36.3174 38.5657 36.3174 38.6087 36.2647C38.6544 36.2094 38.7449 36.1112 38.9053 35.9444L39.1242 35.6791C39.0592 35.7706 39.0847 35.7673 39.175 35.6909C39.1973 35.6716 39.2249 35.6483 39.2536 35.6197L39.3361 35.515C39.365 35.4753 39.4013 35.434 39.4306 35.384C39.4563 35.3319 39.484 35.2765 39.5133 35.2178C39.6159 34.9793 39.6943 34.6559 39.6357 34.319C39.5783 33.9824 39.4258 33.6531 39.1505 33.4149L39.1601 33.5403C39.1668 33.6004 39.1613 33.661 39.1589 33.6622C39.1658 33.6591 39.0801 33.573 38.953 33.4442L38.4955 32.9803L37.9995 32.5148L38.0853 32.6085C37.6417 32.3264 37.0563 31.5865 36.3379 30.9791C35.8936 30.4689 33.9943 28.6995 34.9202 29.3558C34.2419 28.8431 33.8049 28.2402 33.1609 27.5878L34.0314 28.3355C33.1433 27.3154 33.369 27.6384 32.7247 26.7577C32.6139 26.7128 32.414 26.571 32.5382 26.7562C31.2257 25.5009 29.3269 23.7317 28.6569 22.8988C27.731 22.0147 27.4479 22.009 26.2103 20.709C25.9549 20.4303 26.5322 20.8076 25.6432 20.0144C25.577 19.9673 26.3797 20.8938 25.4364 19.9649C24.8484 19.2225 23.7931 18.4748 22.989 17.5467C22.4903 17.1284 21.6943 16.3357 21.7908 16.5677C22.5453 17.2644 23.575 18.2874 23.6998 18.4742C23.641 18.3341 24.2665 18.9408 23.7558 18.3833C24.9257 19.4083 24.4356 19.1254 25.4735 20.056C25.5138 20.1504 24.8797 19.6358 24.6909 19.4038C24.5883 19.4937 26.6173 21.3549 25.6101 20.6092C24.5321 19.5846 24.4186 19.081 23.3887 18.2855C23.7008 18.7017 24.3323 19.2142 24.7015 19.7691L23.9006 19.0715L23.4184 18.4696L23.4371 18.5153C22.0023 17.3028 22.2935 17.2164 21.1388 16.0069C21.904 16.6148 21.1471 15.6874 21.7131 16.1538C20.9207 15.3647 20.3167 14.8065 20.2133 14.8958C21.6393 16.4266 20.1953 15.0781 21.4898 16.5165C21.2263 16.3297 21.678 16.9747 20.8376 16.1842C19.9727 15.2143 21.1988 16.3755 20.2988 15.4443C20.235 15.3995 20.169 15.3528 20.1871 15.3982C19.8092 14.9351 19.6685 14.9328 19.2058 14.3775L19.3091 14.5152C18.6102 13.9549 18.6768 13.7745 18.0612 13.3052C18.3541 13.4479 17.7509 12.8906 17.4549 12.5173C18.0407 13.0297 18.4469 13.2208 19.5425 14.2897C19.6182 14.4736 19.5058 14.4267 19.9304 14.8903L19.2216 14.1923C19.3667 14.3505 19.4695 14.4784 19.5995 14.6263L20.3171 15.2614C19.4861 14.38 19.9473 14.7069 19.6366 14.2915C18.8137 13.5453 18.9941 13.6406 18.4735 13.1743C18.4398 13.3043 16.7913 11.8279 15.8185 10.9932L16.2481 11.4014C16.8624 12.097 15.7188 11.0259 15.671 11.0244L15.2267 10.5142C15.3126 10.6082 15.4194 10.7494 15.2 10.5607C14.5573 9.91011 14.6791 9.86632 14.0377 9.21647C13.9418 9.21376 14.4272 9.81807 13.994 9.44703C13.8128 9.35016 13.2561 9.02078 12.4242 8.13804C12.38 8.06112 12.1635 7.83287 11.9088 7.57228C11.9428 7.60986 11.9869 7.65578 12 7.67497L11.3692 7.16365C11.7842 7.7172 12.4059 8.0927 12.8233 8.64896L12.7902 8.76231C13.1765 9.13587 13.6689 9.67412 13.8714 9.94479C13.2692 9.38813 13.1648 9.24921 12.5215 8.59781C12.3816 8.55461 12.8103 9.03686 12.8721 9.10642L12.8169 8.97001C13.6651 9.66869 13.9198 10.1742 14.9121 11.1054C15.0628 11.2451 14.9781 11.1526 14.9594 11.1071C15.6786 11.9424 16.5555 12.5961 17.2294 13.4322L17.0179 13.1516L19.4135 15.8076L19.3924 15.8438C19.2612 15.751 19.6467 16.1213 19.8648 16.3088L19.8642 16.3075L21.1814 17.7598C20.9992 17.6259 20.8251 17.482 20.66 17.3287C20.5338 17.1404 19.5644 16.259 19.7715 16.3082C19.2897 15.9339 18.6565 15.1922 18.3078 14.9124C18.9397 15.4257 17.9763 14.4501 17.9175 14.3101C17.6725 14.1688 17.0592 13.474 17.0689 13.6116C16.9368 13.5174 17.3988 13.8449 17.6064 14.1221C18.1541 14.7702 16.4363 13.0974 17.1367 13.8871C16.2178 12.91 14.9251 11.701 13.9904 10.6805L14.5749 11.1926C14.1224 10.7744 13.0896 9.74852 12.9792 9.70376C13.3005 10.0289 13.6858 10.3993 14.0933 10.8184C14.039 10.9105 13.0826 9.84152 12.9895 9.84093L11.891 8.54124L12.4304 9.0541C12.1386 8.68461 10.9645 7.65695 10.1245 6.86604C10.4979 7.42444 11.3735 8.077 12.205 8.95955C12.8002 9.60921 11.7148 8.67686 12.2903 9.28002C12.1107 9.15272 11.722 8.772 11.5547 8.56081L11.2996 8.3502C11.7417 8.95703 12.9626 10.0957 13.6814 10.9444C13.6212 10.8671 13.5706 10.7979 13.5594 10.7659C14.2105 11.3249 14.8338 11.9296 15.4087 12.5324C15.0622 12.2545 14.9566 12.1141 14.786 11.9284C14.7405 11.9288 15.2967 12.4851 15.4854 12.7164C14.9002 12.204 15.3264 12.669 14.958 12.3431C15.2992 12.7153 15.6 12.9931 16.0523 13.4112C16.3172 13.599 15.911 13.1811 16.0039 13.1818C16.4321 13.6488 16.751 13.7435 17.3648 14.4393C16.4578 13.6009 17.4985 14.7619 17.7732 15.087L17.6211 14.9465C17.8485 15.2705 18.0852 15.5032 18.3291 15.6433C17.9879 15.2711 17.6211 14.9465 17.7794 14.9932C18.017 15.2273 18.2538 15.4606 18.5093 15.7388L18.3018 15.4619L19.4829 16.6244C19.6232 16.8537 19.8702 17.2243 19.9637 17.4527C20.2938 17.6866 20.6554 18.1067 20.9101 18.3849L20.8041 18.2434C21.3716 18.7114 22.5074 19.8749 22.5632 20.0116C22.9772 20.3375 20.1798 17.1828 22.7966 19.7863C23.8059 20.7619 23.2886 20.5259 23.8178 21.128C23.8178 21.128 23.7991 21.0833 23.8653 21.1298C24.3172 21.5469 24.3096 21.6399 24.6507 22.0121C24.365 21.7763 23.9799 21.4065 23.8762 21.2679C23.952 21.4516 24.8016 22.1518 25.0952 22.5223C24.7439 22.0127 25.9832 23.3146 25.6872 22.9416C26.6229 23.7354 27.493 24.7102 27.8895 25.2188C28.5969 25.6877 28.9208 26.2428 29.94 27.128C29.7879 26.9875 29.5344 26.7109 29.3145 26.5214C28.8331 25.9207 30.3544 27.4543 29.5693 26.5721C29.7399 26.7581 29.5449 26.6206 29.3697 26.4301C29.0518 26.1079 28.7759 25.7818 28.8897 25.8301L29.7407 26.5318L29.4823 26.2495L30.7655 27.3223C30.784 27.3675 30.6542 27.276 30.5877 27.229C32.0141 28.5331 33.5538 30.1124 34.7819 31.2759C34.797 31.4818 35.5244 32.2253 36.3558 33.0507L36.9893 33.6779L37.3029 33.9896L37.4213 34.1093L37.4886 34.1808C37.5762 34.2733 37.6595 34.3618 37.6766 34.466C37.6983 34.567 37.6712 34.6617 37.6234 34.7235C37.6932 34.6596 37.7552 34.5929 37.8114 34.5563C37.869 34.5195 37.9266 34.5139 37.9672 34.5786C37.9728 34.4924 37.9756 34.3482 37.8851 34.2056C37.8411 34.1345 37.7781 34.0644 37.7107 33.9869C37.6758 33.9479 37.6415 33.9113 37.5995 33.8699C37.5399 33.811 37.4779 33.7524 37.4137 33.6943C37.3023 33.6484 36.6524 33.0904 37.0112 33.5072C35.6599 32.1588 37.2841 33.6027 36.9524 33.14L37.3292 33.5176L37.6649 33.8629C37.8074 34.0268 37.9625 34.1568 38.0304 34.3252C38.0614 34.4047 38.0745 34.4897 38.0689 34.5744C38.0633 34.6592 38.0391 34.7419 37.9979 34.8169C37.9222 34.9634 37.7805 35.0514 37.6674 35.1393L37.5197 35.2504L37.2877 35.4451L36.8276 35.8403L36.8268 35.8864L36.0568 36.5442C36.6365 35.9589 36.4948 35.8789 35.77 36.6547L35.8686 36.5702C35.4799 37.0366 34.5174 37.8585 33.844 38.523L33.3172 38.9061C32.6428 39.5718 32.7343 39.717 32.5852 40.0008C31.5249 41.0411 30.8085 41.5411 29.9903 42.2172C29.6998 42.5996 28.1115 44.1574 29.0237 43.4002C28.0132 44.286 27.9249 43.8251 26.4281 45.5732L26.9081 45.2079C25.3166 46.7241 22.9607 48.8032 22.2859 49.5583C23.0518 49.1717 20.4973 51.6446 20.3955 52.0891C20.4331 51.974 19.8252 52.5343 19.7169 52.5967C19.6077 52.7426 19.4115 52.9716 19.1444 53.1578C19.7249 52.5277 18.5249 53.3965 19.7757 52.3284C19.0563 52.7856 18.1918 53.4349 16.8913 54.7024L16.9858 54.7557L17.997 53.7354C17.9476 53.8894 18.4757 53.3717 18.7194 53.1857C16.8381 55.0832 19.1462 53.1117 17.1702 55.0006C16.9318 55.137 17.0749 55.0374 16.5447 55.5125C16.7875 55.2829 16.8824 55.2909 16.4961 55.6658L16.0645 55.9673C15.5026 56.7506 17.2822 54.9483 16.7841 55.5987C17.602 54.9223 18.9483 53.6831 18.7988 54.0119C17.5936 55.2424 17.5047 54.9161 16.2517 56.2096L16.1546 56.3823C15.671 56.7957 15.5315 56.8033 15.242 57.006C15.2426 57.0501 15.1442 57.1788 14.8579 57.4679C13.992 58.1183 13.462 58.5936 12.6467 59.1779C14.6159 57.4289 14.1897 57.5471 16.211 55.7311C15.8741 55.9963 14.4778 57.3007 14.2902 57.2823L14.3835 57.3371C13.7103 57.912 13.0376 58.487 12.2654 59.2799L12.794 58.8511C11.6859 59.8202 11.1521 60.6555 10.1945 61.3398C10.4821 61.0494 10.7233 60.8208 10.9163 60.6565C10.3394 61.1492 9.66497 61.8149 9.08684 62.3974L7.74115 63.4582C7.78891 63.4837 7.01674 64.2338 7.44958 63.9301C6.62643 64.835 6.10007 65.1277 5.57312 65.6007C4.75138 66.5478 6.38904 64.8813 6.58068 64.8958C5.37365 66.1279 4.02656 67.3685 3.2586 67.9798C3.49679 67.7207 3.60676 67.5894 3.57586 67.5843C3.56181 67.6434 3.05532 68.1206 2.77719 68.3905L2.53699 68.5287L2.52696 68.5399L2.52435 68.5426L2.55024 68.5674H2.55064L2.55204 68.5684L2.55626 68.5723C2.56014 68.5764 2.56363 68.5808 2.56669 68.5855C2.56709 68.5864 2.56488 68.5816 2.56649 68.5843C2.57071 68.5924 2.56489 68.5795 2.5679 68.5868C2.5709 68.5971 2.57594 68.6067 2.58274 68.6151C2.58495 68.617 2.59458 68.6298 2.59819 68.6289C2.60123 68.6289 2.60424 68.6294 2.60703 68.6306L2.61405 68.6333C2.61987 68.6304 2.61264 68.6444 2.63131 68.6277C2.62228 68.637 2.61987 68.6385 2.62007 68.6372L2.61706 68.6376L2.61245 68.6395C2.60883 68.6397 2.61084 68.6488 2.60542 68.6457C2.59518 68.6387 2.59559 68.6519 2.58555 68.6411C2.57432 68.6453 2.56168 68.6168 2.55746 68.6168C2.55726 68.611 2.55726 68.6077 2.55626 68.6073C2.55867 68.6073 2.54823 68.6077 2.56047 68.6091C2.58171 68.6124 2.60128 68.6223 2.61626 68.6372L2.62709 68.6494C2.6283 68.6517 2.63934 68.6645 2.62569 68.6527L2.52616 68.574L2.47599 68.5359L2.47559 68.5357L2.54863 68.5994L2.54884 68.5992L2.54903 68.5988L2.54923 68.5984L2.54943 68.5975V68.5965C2.54863 68.5957 2.54542 68.5971 2.5392 68.5994C2.539 68.5975 2.52395 68.6035 2.51231 68.6029C2.50428 68.6099 2.51291 68.6097 2.50469 68.619C2.50168 68.6261 2.51051 68.6267 2.50629 68.638L2.50589 68.6399L2.50568 68.6409L2.50549 68.6413C2.47499 68.6143 2.57412 68.7011 2.43666 68.5812L2.43726 68.5818L2.43987 68.5839L2.45993 68.601L2.49966 68.6351L2.58034 68.7031L2.58937 68.7106L2.58676 68.706L2.58054 68.6973C2.57615 68.6918 2.57095 68.687 2.56509 68.6831C2.55437 68.6761 2.54205 68.6716 2.52916 68.6701C2.54166 68.6761 2.55546 68.679 2.56937 68.6786C2.58329 68.6782 2.5969 68.6746 2.60903 68.668C2.61465 68.6661 2.62288 68.6665 2.62469 68.6573C2.62588 68.6561 2.62733 68.655 2.62895 68.6543C2.63057 68.6535 2.63233 68.6531 2.63412 68.6531C2.63271 68.6572 2.64495 68.6451 2.65699 68.6333L2.69051 68.6008L2.94415 68.3566C3.10349 68.2055 3.24134 68.079 3.3495 67.9926C3.12926 68.1924 2.91336 68.3965 2.70195 68.605L2.64817 68.6585C2.64054 68.6641 2.64054 68.6616 2.63733 68.6643C2.63231 68.6668 2.63191 68.6757 2.6281 68.68C2.62248 68.6808 2.61866 68.6839 2.61565 68.6897C2.61425 68.699 2.60682 68.6959 2.60281 68.6996C2.59779 68.7011 2.59499 68.712 2.58897 68.7126C2.57753 68.7102 2.56669 68.7312 2.55385 68.7271C2.54639 68.7292 2.53938 68.7326 2.53318 68.7372C2.52679 68.7353 2.51995 68.7352 2.51351 68.737C2.48181 68.7405 2.52435 68.7478 2.52435 68.7746L2.52555 68.7844C2.52595 68.7883 2.51151 68.7759 2.50508 68.7724L2.45512 68.7387L2.40475 68.7046L2.37927 68.6876L2.36662 68.6788L2.36021 68.6746L2.35859 68.6734C2.47739 68.7771 2.39151 68.7019 2.418 68.7253L2.41779 68.7252L2.41719 68.7244C2.41134 68.7175 2.4041 68.7118 2.39592 68.7077C2.38508 68.704 2.37566 68.6988 2.37284 68.6897C2.33512 68.6668 2.32649 68.6188 2.31826 68.5672C2.31144 68.544 2.32749 68.5041 2.32589 68.4932C2.32549 68.4973 2.32267 68.5008 2.31806 68.5027C2.31527 68.5039 2.31228 68.5046 2.30923 68.5047H2.30382C2.30141 68.5049 2.31184 68.4942 2.31545 68.4895L2.37806 68.4153L2.41017 68.3776L2.42642 68.3582L2.43044 68.3535L2.38147 68.406L2.38268 68.4049L2.38488 68.4026L2.39411 68.3938C2.61736 68.1802 2.8436 67.9695 3.07278 67.7618C3.07418 67.7155 2.6889 68.0001 3.07519 67.626C3.98964 66.7777 3.4095 67.4966 3.74361 67.2784C3.38342 67.5971 3.13037 67.8409 2.92509 68.061C2.82255 68.171 2.73184 68.2751 2.64536 68.3797L2.51833 68.5372L2.51813 68.5376L2.58094 68.4704L2.58054 68.4709L2.57973 68.4725L2.57793 68.4752L2.57452 68.4804L2.5677 68.4913L2.55425 68.5126L2.52736 68.556C2.51151 68.5831 2.48643 68.6186 2.4778 68.6399C2.46817 68.6486 2.52716 68.6021 2.57713 68.5638C2.58968 68.5539 2.60232 68.5442 2.61505 68.5345L2.63271 68.5209L2.63693 68.5176L2.63793 68.5169L2.63853 68.5165L2.63873 68.5163L2.63893 68.5161L2.5707 68.5889L2.57291 68.5876L2.58114 68.5826L2.61606 68.5607C2.62348 68.514 3.05573 68.0945 3.16368 67.9521L3.35572 67.922C3.21526 67.8856 3.84074 67.1509 4.41907 66.6568C3.93285 67.2509 4.07833 67.104 4.02997 67.3466C4.89245 66.6995 4.80034 66.4206 5.76094 65.6894C5.66803 65.7241 4.89666 66.4274 5.52275 65.7807C6.05512 65.2591 6.05312 65.3951 6.43499 65.069C5.9556 65.3885 6.00456 65.2349 5.4776 65.574C4.51519 66.485 5.09412 65.9462 4.13031 66.8142L4.85593 65.9925C4.03659 66.7603 4.18389 66.4774 4.08917 66.514C5.39252 65.1099 5.24081 65.6195 6.1085 64.7441C6.5871 64.3802 5.28817 65.5567 6.01057 64.9623C6.8293 64.1508 6.24817 64.8262 7.21158 63.9582L7.02155 64.0758C7.26215 63.7583 7.59787 63.539 7.9348 63.2284C8.31948 62.9003 7.78228 63.8732 9.27687 62.44C9.18316 62.4906 9.14323 62.5037 9.1346 62.4954L7.05867 63.2968C8.72507 61.6898 10.3711 60.0633 11.9965 58.4177C12.2863 57.9029 10.6488 59.5252 10.7008 59.3688L9.92865 60.1626C10.025 60.1692 11.6145 58.5655 10.9862 59.3486C9.54155 60.6718 8.96222 61.3459 7.52041 62.5324C7.81319 62.0139 9.30075 60.8553 10.0749 59.9254C9.71814 60.2852 9.39687 60.5697 9.08041 60.8415L11.6456 58.2658L11.8838 58.0927C11.2719 58.71 10.8497 59.1378 10.7983 59.1958C11.6169 58.3847 12.3838 57.7748 12.5283 57.8077L12.384 57.953L12.7117 57.6907C12.9014 57.4979 13.0902 57.3045 13.278 57.1123ZM5.8665 4.98683C5.90844 5.04379 5.93814 5.09184 5.95499 5.13214C5.93753 5.0901 5.97987 5.1149 5.8665 4.98683ZM6.1697 66.8136L4.53626 68.439L3.72937 69.2431L3.5293 69.4417C3.50161 69.4721 3.45044 69.5139 3.40288 69.5521C3.35371 69.5885 3.31037 69.6333 3.25478 69.6608C3.04368 69.792 2.79525 69.8505 2.54943 69.8565C2.77077 69.8359 2.98449 69.7813 3.15646 69.6683C3.24756 69.6207 3.32101 69.5536 3.39064 69.4866C3.4697 69.4176 3.5004 69.3665 3.55418 69.308L4.08014 68.6864C4.38897 68.3163 4.60409 68.0445 4.66509 67.9325C4.72609 67.8205 4.63258 67.8686 4.32395 68.1381C4.16964 68.2727 3.96154 68.4628 3.69225 68.7159L3.24114 69.1437C3.1992 69.1871 3.15766 69.2163 3.11552 69.2495L3.05171 69.2996L2.97666 69.3368L2.9004 69.376L2.81552 69.3998C2.78662 69.4074 2.75833 69.418 2.72843 69.4238L2.63612 69.432C2.63512 69.4442 2.37726 69.4089 2.38047 69.4002C2.50649 69.4139 2.6606 69.4211 2.81552 69.3638C2.89619 69.3461 2.96803 69.2965 3.04388 69.2545L3.14783 69.1702C3.18415 69.1408 3.22448 69.0968 3.26341 69.0602C3.59735 68.7343 3.93544 68.4125 4.2776 68.0947C4.78664 67.7072 5.29876 67.3236 5.81392 66.9438L6.56944 66.3918C6.7667 66.2503 6.89212 66.1643 6.89232 66.1738C6.74703 66.4094 6.40971 66.6311 6.07118 66.987L6.1697 66.8136ZM6.66055 65.7691C7.26757 65.1448 7.16423 65.3205 7.29647 65.2605L6.62443 65.8836C6.69888 65.7946 6.72757 65.7427 6.66055 65.7691ZM7.29406 65.3306C7.22442 65.3994 7.16603 65.4591 7.13934 65.4941L7.29406 65.3306ZM7.76102 62.172L7.69459 62.2321L8.13767 61.7884C8.08329 61.8519 7.97313 61.9666 7.76102 62.172ZM6.57506 63.4837L6.36175 63.5653L6.77734 63.1495C6.75908 63.2237 6.73479 63.2962 6.57506 63.4837ZM2.69753 67.6368C2.61385 67.6804 2.49686 67.7649 2.36623 67.8668L2.16234 68.0296L2.10997 68.0722L2.08368 68.0935L2.07063 68.1044L2.07024 68.1048C2.07907 68.0951 2.04957 68.1265 2.0901 68.0834L2.0895 68.0842L2.08789 68.0858L2.08488 68.0889L2.07887 68.0947L1.98375 68.1896C1.94422 68.2249 1.9382 68.2437 1.92435 68.2636C1.91131 68.2846 1.89345 68.3006 1.8792 68.3241C1.85933 68.378 1.82281 68.4254 1.81178 68.4729C1.79873 68.5196 1.78027 68.5603 1.76722 68.592C1.7588 68.6238 1.74696 68.6463 1.73191 68.6552C1.71947 68.6883 1.70281 68.6537 1.68916 68.5773L1.69258 68.4363C1.6994 68.3828 1.71967 68.3252 1.73331 68.2642C1.74715 68.2338 1.76421 68.2057 1.77926 68.1757C1.79572 68.146 1.80435 68.1154 1.83505 68.084L1.91372 67.9893L1.93358 67.9654C1.93864 67.9605 1.94365 67.9555 1.94863 67.9505L1.99358 67.9062C2.11378 67.788 2.23739 67.6659 2.36481 67.5402C2.38669 67.544 2.4501 67.5062 2.54703 67.4351C2.30402 67.6913 2.15632 67.8767 2.31425 67.8302C2.84823 67.0835 2.98509 67.347 3.66094 66.6349C3.9487 66.4786 2.93693 67.4545 2.69753 67.6368ZM23.1822 19.2651C23.1544 19.2533 23.0655 19.206 22.9436 19.1365L23.3974 19.6596C24.3046 20.4982 25.1442 21.061 25.8333 21.9393C26.235 22.2737 26.4939 22.4105 26.7333 22.5486C26.5467 22.3752 26.3707 22.2142 26.2206 22.0838C24.1412 19.7644 24.8819 21.1203 23.1822 19.2651ZM33.548 28.9702C33.4621 28.8764 33.4437 28.8307 33.4437 28.8307C35.2637 30.9045 36.8498 32.5275 37.9256 33.554C37.6533 33.4167 36.6435 32.5388 36.1611 32.1249L36.4908 32.5862L36.8011 32.7734L37.4348 33.5151C37.189 33.3739 36.6333 32.8174 36.2167 32.489C36.1979 32.4436 35.0727 31.1904 34.7797 30.8194L35.7989 31.7047C35.5168 31.4722 34.2498 30.2159 33.7595 29.7061C33.7868 29.6606 34.7213 30.4526 34.7512 30.6371C34.9106 30.6849 33.8996 29.7075 34.5983 30.2682C33.899 29.4794 32.6438 28.3622 32.0568 27.8482L31.8696 27.8461C31.2197 27.2879 31.5662 27.3378 30.7832 26.6851C31.6619 27.5684 30.5301 26.6367 31.2367 27.3322C30.9738 27.146 31.1342 27.4221 30.4262 26.7252C29.9536 26.0323 29.596 26.0719 29.1415 25.4243C28.7275 25.0984 29.4722 25.8861 28.7165 25.1878C27.9325 24.3068 28.0276 24.3095 28.0643 24.1727C28.8825 24.9144 28.8395 25.1449 29.5099 25.7504L28.3724 24.3573C28.6318 24.566 28.81 24.7338 28.9515 24.8822C28.701 24.6234 28.5034 24.3889 28.3461 24.1768L28.0934 23.8454C28.8255 24.5507 29.477 25.1758 29.6297 25.25L29.5722 25.1108C29.8708 25.3224 30.2617 25.7599 30.4246 25.9783C31.0746 26.6152 31.6683 27.3047 31.8674 27.3888L31.6583 27.1106C32.4516 27.8999 32.536 27.9918 33.548 28.9702ZM18.4156 55.0458C18.7448 54.4219 19.1426 53.7674 21.4467 51.5962L21.2566 51.7585C22.3043 50.5548 23.6249 49.7259 24.91 48.2716C24.1729 48.8679 24.2149 48.8379 23.3305 49.4281L24.1021 48.7697C23.8144 48.8809 24.5839 48.2243 25.1131 47.7054L24.54 48.0608C24.2494 48.3983 23.4305 49.2095 23.4315 49.1634C23.6245 48.9989 22.4657 50.3461 21.742 50.987C21.7442 50.8508 23.2368 49.4639 22.4693 49.9857C23.0933 49.475 23.0956 49.3391 23.7224 48.7807C23.097 49.2928 23.4847 48.8274 23.0038 49.1938L24.0156 48.2626C24.0182 48.2154 22.5251 49.6025 23.2493 48.7381C23.6815 48.3911 24.6929 47.3264 24.7868 47.3803L24.788 47.3346C25.5124 46.6039 25.2196 47.1222 26.0865 46.203C26.1349 46.229 25.9874 46.4216 25.6539 46.7287C25.3619 46.9785 25.2682 46.9695 24.6907 47.507C24.4948 47.8093 25.3673 46.8395 25.0727 47.3154C24.9265 47.5518 23.5328 48.7199 24.0588 48.4268L24.782 47.6975C24.8759 47.7515 25.4069 47.2305 25.4524 47.3034C25.932 46.8936 26.2742 46.4003 26.8011 46.0174C27.0411 45.8791 26.7967 46.2891 27.5211 45.5137C28.0071 44.8305 29.7873 43.1532 30.4619 42.5326L31.0862 42.022C31.0832 42.1139 29.9785 43.0794 30.4083 42.7798L31.3254 41.929L31.2273 41.9682C31.5188 41.6743 31.8544 41.4102 32.1427 41.1637C31.8086 41.3819 31.1825 42.0284 31.2331 41.8289C31.6397 41.4065 31.6752 41.3164 32.0783 40.956C31.988 41.0325 31.9075 41.0955 31.9071 41.0746C32.7277 40.217 32.8194 40.3622 33.059 40.18C34.0194 39.4488 32.2874 41.1067 32.4776 41.0785L35.0284 38.6986C34.7888 38.8809 34.5479 39.065 34.5967 38.9559C35.1758 38.3272 34.5502 38.884 35.4174 38.0538C35.4628 38.2161 36.5713 37.068 37.2431 36.5386C37.4843 36.2211 37.5343 36.156 36.9096 36.7566C36.9086 36.6239 37.7825 35.8316 38.0593 35.5522C38.0956 35.5237 38.1312 35.4944 38.166 35.4643C38.2477 35.3937 38.3556 35.3131 38.4478 35.2168C38.4939 35.1688 38.5431 35.1223 38.5728 35.0667C38.6067 35.0138 38.6436 34.9648 38.6599 34.914C38.629 35.0744 38.6157 35.1225 38.6884 35.0529C38.704 35.0345 38.7297 35.0105 38.749 34.9741C38.767 34.9372 38.7877 34.8913 38.8112 34.8361C38.8354 34.7811 38.8397 34.7121 38.8557 34.6354C38.8625 34.5481 38.859 34.4603 38.8453 34.3738L38.8525 34.3273C38.9127 34.5288 38.9219 34.7706 38.8375 35C38.7584 35.2343 38.5686 35.4162 38.3892 35.6092L37.8425 36.1672L37.3395 36.6684C37.0176 36.9823 36.7298 37.2462 36.5187 37.4039L36.7102 37.2855C35.7447 38.3332 34.3547 39.3196 34.0128 39.9024C34.1083 39.9103 33.8187 40.1128 33.9114 40.1676L33.0981 40.8401L33.2891 40.7214L31.9882 41.9449L32.0362 41.9256L30.3975 43.1828C30.3634 43.1528 30.3931 43.1047 30.1655 43.2778C29.9861 43.4237 29.8154 43.5794 29.6542 43.7439C29.653 43.7447 29.653 43.7447 29.6526 43.7445L29.653 43.7449C29.3476 44.0584 29.1845 44.3062 28.8156 44.6993L30.0176 43.5542C30.1704 43.5139 30.1264 43.6674 29.58 44.2698C29.8214 44.0408 29.9647 43.9857 29.6749 44.2779C29.6279 44.2953 28.8572 44.9993 29.0986 44.6805C27.9441 45.7563 26.2533 47.6698 24.4258 49.2308C25.7263 48.0972 23.5085 50.2601 24.9048 48.9557C24.0347 49.9671 23.9925 49.6679 23.0289 50.6249C22.9776 50.7361 23.5569 50.1072 23.8442 49.9508C22.2547 51.5539 20.9594 52.4597 19.4143 54.0036L19.4163 54.1353C19.1095 54.4141 18.7693 54.7239 18.4156 55.0458ZM15.2197 57.965L14.2745 58.8315L14.3628 58.7422L13.3982 59.566C13.9296 59.0007 14.2218 58.5721 13.4046 59.2927C13.499 59.2566 13.3055 59.5112 13.5939 59.2647C13.1117 59.8107 12.0024 60.9591 12.1976 60.5689C13.3031 59.6924 12.2992 60.2139 13.1634 59.5211C12.671 59.865 12.2811 60.3007 11.8498 60.6584C12.324 60.3104 11.8816 60.877 11.282 61.5084C10.9924 61.7556 10.2698 62.4842 9.78898 62.8953C9.8867 62.6775 9.45526 63.0234 10.1779 62.2945C9.76737 62.6444 9.38069 63.0196 9.02022 63.4177C9.21747 63.2483 9.55118 62.9414 9.55179 62.9856C9.30717 63.3351 8.94958 63.6755 8.77861 63.8889L8.30101 64.3302C8.34115 64.2804 8.37346 64.2353 8.39272 64.1991L7.817 64.6461C8.53881 64.0073 8.10717 64.3089 8.06102 64.2814C8.15433 64.3357 7.62536 64.7207 7.38637 64.9468L7.82162 64.374C7.53326 64.5757 7.00108 65.2765 7.05265 65.0756C8.11219 63.9919 8.54523 63.6 9.5554 62.67L9.21647 63.116C10.3731 62.0831 9.79761 62.3514 11.0498 61.1484C11.6249 60.701 12.9321 59.3384 13.0701 59.4221C12.8793 59.5401 13.748 58.5746 14.227 58.2103C14.8027 57.8527 16.2471 56.4848 15.8608 56.9482C15.4753 57.3228 14.8988 57.7705 14.6548 58.1352L15.426 57.4318L14.9899 57.9608C15.2243 57.6961 15.2542 57.7727 15.2197 57.965ZM3.84375 64.5374L3.87124 64.5081L3.83953 64.5395L3.84375 64.5374Z" ></path>
  </symbol>
  <symbol xmlns="http://www.w3.org/2000/svg" viewBox="0 0 40 73" id="control-left-icon">
    <path d="M26.723 58.7211L26.4924 58.5177L26.6221 58.6142L26.0768 58.0365C25.995 57.9643 25.9143 57.8907 25.835 57.8157C25.8736 57.8498 25.9083 57.8713 25.9324 57.8823L25.759 57.6958C25.2473 57.3127 24.0846 56.2495 23.7254 55.9664C23.2723 55.57 22.7353 55.067 22.4128 54.7375C22.7148 55.0399 23.13 55.427 23.0441 55.2726C22.4646 54.6254 22.2695 54.2247 21.1171 53.2588L21.7418 53.8761L20.2055 52.6187C19.7704 52.0756 20.9722 53.2462 21.2154 53.3912C20.059 52.3751 19.3301 51.2989 18.7081 50.9133C18.7063 50.774 18.7022 50.5405 17.9802 49.8375C18.4169 50.428 17.5006 49.4622 17.8392 49.9662C17.5524 49.7604 17.0662 49.1494 16.9735 49.16L17.069 49.1978C15.9575 47.8767 15.3858 47.6504 14.8068 47.188C13.3163 45.7644 12.6898 45.0531 11.4856 43.8807C11.4852 43.7881 11.2881 43.339 10.8047 42.8689C10.5195 42.7103 9.41126 41.668 9.22042 41.6384C10.0422 42.5209 9.98778 42.2661 10.5185 42.7557C10.8605 43.2627 10.4738 42.8769 11.0056 43.505C10.5685 43.006 8.83855 41.4409 8.40309 40.8517L8.59573 41.021C7.82235 40.1578 7.8645 39.8046 6.37553 38.5655L5.67319 37.9661C5.71272 37.9894 5.72576 37.9836 5.74964 37.9932C5.21947 37.4585 5.05011 37.241 4.85686 37.0195C4.80601 36.9609 4.75396 36.9034 4.70074 36.8469C4.62869 36.771 4.5551 36.6966 4.48001 36.6236C4.30703 36.4547 4.07626 36.2409 3.71405 35.9174C3.82583 36.0172 3.77706 35.9513 3.88864 36.0513C3.74482 35.89 3.59557 35.7336 3.44114 35.5823C3.72589 35.2971 3.98155 35.0126 4.23178 34.7303L4.59961 34.3154L4.90783 33.9737C5.28529 33.7321 4.90021 34.1124 4.75673 34.3512C5.96596 33.2022 7.12784 31.8202 7.78082 31.0096L8.58289 30.2915C8.15828 30.7682 7.67607 31.3871 7.85466 31.2903C8.26062 30.8606 8.14784 30.9096 8.75386 30.3335C8.69547 30.4766 8.48657 30.7634 8.26162 31.0939C9.56035 29.9472 8.38383 30.6706 9.37393 29.9488C9.76022 29.567 9.92156 29.2825 9.91193 29.1892L10.6781 28.5631C10.6897 28.4207 11.548 27.5609 12.103 26.9902C12.1436 26.8935 11.5777 27.3718 11.389 27.6097C11.3794 27.5165 11.9561 26.8955 12.3438 26.5126C12.6238 26.5095 14.8548 23.9801 14.5608 24.5956C16.2523 22.827 18.6778 20.3915 19.766 19.1962C20.1822 18.8589 20.9544 18.0964 20.5578 18.6191C21.9563 17.232 22.535 16.3752 23.9604 15.0355C24.0924 14.9387 23.3343 15.6594 23.4298 15.6562C24.2812 14.701 25.1383 14.0765 26.5085 12.643C26.2743 12.8804 26.2338 12.9772 26.2153 13.0242C26.1677 13.026 26.7441 12.4047 27.086 12.0212C27.3025 11.83 26.8301 12.3081 26.9624 12.2117C29.7477 9.58007 31.6304 7.33755 34.34 4.65995C33.5662 5.42453 33.3659 5.80522 33.3954 5.85084L34.1534 5.1016C34.399 4.76673 34.9671 4.20316 35.4076 3.69776C35.483 3.65692 35.7326 3.44596 35.5187 3.70155C36.3122 3.0061 36.8536 2.38536 37.4317 1.7172L37.8766 1.20523L37.9334 1.13989L37.9673 1.08749C37.9906 1.05343 38.0175 1.02175 38.0291 0.980717C38.0658 0.907208 38.0847 0.824536 38.0917 0.741465C38.0977 0.657796 38.0895 0.571138 38.0632 0.488864C38.0474 0.450416 38.0379 0.399219 38.0183 0.379298C38.0104 0.365484 38.0037 0.35102 37.9984 0.336069L37.9942 0.323918L37.9771 0.303798L37.943 0.263357L37.8742 0.181481L37.8655 0.171123L37.8643 0.169927C37.9121 0.222518 37.877 0.18407 37.8874 0.195625L37.8856 0.19443L37.882 0.19184L37.868 0.181481L37.8401 0.160166L37.7861 0.114347C37.7643 0.104348 37.7429 0.0935829 37.7219 0.0820741C37.6767 0.0509971 37.644 0.0505998 37.6109 0.0330692C37.6031 0.022511 37.5595 0.0183273 37.5192 0.0141438L37.3996 0L37.5348 0.00159282C37.5533 0.00258887 37.587 0.000397535 37.5991 0.00438176C37.6286 0.0125341 37.6589 0.017478 37.6896 0.0191244L37.756 0.0454196C37.807 0.0579699 37.8521 0.0896447 37.9027 0.122515L37.9223 0.134467L37.9326 0.140443L37.9374 0.143432L37.9388 0.144229L37.9394 0.144627C37.9312 0.135463 37.9591 0.165744 37.9209 0.12391L37.9237 0.126898L37.9697 0.173912C38.0009 0.206062 38.032 0.2382 38.0632 0.270329C38.1186 0.34822 38.1973 0.491454 38.2151 0.643651C38.2272 0.797479 38.1987 0.951781 38.1322 1.09128C38.0899 1.15662 38.0582 1.21419 38.0024 1.27993L37.8485 1.46042L37.531 1.83294L38.1439 1.35225L37.2533 2.40348C37.8834 1.868 38.2825 1.28252 38.4053 1.20742C38.3921 1.25623 38.3538 1.31001 38.3098 1.36798L38.2422 1.45683L38.1764 1.52994C38.0913 1.62537 38.0227 1.70903 38.0369 1.73234C38.1842 1.59628 38.2896 1.50962 38.3889 1.37695C38.4399 1.32017 38.469 1.25842 38.4954 1.20105C38.5223 1.14387 38.5488 1.09228 38.5577 1.0361L38.5916 0.875533L38.5956 0.706602C38.601 0.647835 38.5856 0.58608 38.5763 0.517949C38.5705 0.449221 38.547 0.377704 38.5187 0.298019C38.6167 0.498426 38.6534 0.769354 38.5735 1.04407C38.5342 1.17973 38.4712 1.32017 38.3728 1.4405C38.3504 1.47018 38.3243 1.50664 38.3028 1.53114L38.2384 1.60345L38.1064 1.75007C37.7262 2.16813 37.3403 2.581 36.9487 2.98857L34.7498 5.26476C34.577 5.45819 34.873 5.07471 34.891 5.0281C34.4191 5.506 34.089 5.74625 33.5134 6.3662C33.2006 6.7955 33.8417 6.12754 34.1437 5.84028C34.155 5.93232 34.0031 6.07694 33.6814 6.41162C33.5407 6.41381 31.8489 8.18201 31.34 8.51947C29.602 10.2881 31.8007 8.41827 30.0527 10.0936L29.4603 10.5243C28.5244 11.5752 27.2889 12.9097 26.1433 14.0133L26.3784 13.7747C26.5031 13.5838 26.2203 13.8229 26.0871 13.9207C25.2003 14.7337 24.5301 15.5899 23.9341 16.0242C23.0457 17.0734 21.4863 18.7452 20.4178 19.8925C20.0132 20.0865 21.7799 18.3641 22.1772 17.84L21.1655 18.8454C21.7897 18.2229 21.9972 17.938 22.3129 17.5065C21.4063 18.3681 21.206 18.7484 20.3913 19.6098C20.4284 19.5165 20.2986 19.6108 19.9099 19.995L19.8691 20.1733C19.8563 20.1747 19.8081 20.2122 19.6839 20.3267L18.2297 21.8545C18.5768 21.5686 18.6527 21.6134 19.0402 21.2304C18.8616 21.3272 19.1816 20.9937 19.5695 20.6108C19.276 20.9923 19.9849 20.2743 20.0142 20.3196C19.2366 21.0877 18.2931 22.0429 17.8036 22.5667L17.5745 22.6673C16.8192 23.385 16.0741 24.1952 15.5541 24.6745L15.6784 24.4839C14.7719 25.3449 13.9398 26.2527 13.0901 26.9724C12.3721 27.8302 11.437 28.8793 10.8669 29.5968C10.6036 30.0222 8.44222 31.7983 7.66663 32.799C7.5976 32.8498 8.21707 32.1292 8.49018 31.7961C7.88416 32.3724 7.51513 32.9424 7.24242 33.041C8.60276 31.7483 7.10155 33.0432 7.67667 32.4232C7.055 33.0436 6.41346 33.7117 6.13874 34.046C7.1467 33.0438 5.90034 34.5207 6.88382 33.4693C6.54188 33.8777 6.12489 34.3411 5.677 34.8122L5.24255 35.266C5.13515 35.3742 5.02467 35.4794 4.91125 35.5813L4.96924 35.6461C4.89419 35.6461 4.91647 35.7025 5.07861 35.8943C5.08242 35.8983 5.29934 36.0057 5.29553 36.0019C5.39566 36.111 5.27646 36.0246 5.17091 35.9543C5.06737 35.8857 4.97767 35.8333 5.21105 36.084C5.29593 36.1453 5.33606 36.1696 5.50683 36.3286C5.6588 36.4691 5.80859 36.6118 5.95613 36.7569L6.89948 37.7008C7.51995 38.3235 8.08624 38.8725 8.37219 38.9857C9.00089 39.7447 6.97774 37.738 7.94456 38.863C7.27172 38.3183 6.50035 37.4113 6.21319 37.2966C6.83627 37.8665 6.35908 37.5854 6.74436 37.9697L7.46496 38.5799L7.32048 38.4301C8.52189 39.4618 10.2581 41.2626 11.7025 42.6693C13.0008 43.7865 13.96 44.4909 15.4042 45.9433C14.9244 45.5676 16.5627 47.1902 15.5547 46.374C16.1826 47.086 16.8996 47.6928 16.9504 47.6687C16.3715 47.0683 16.7543 47.4502 16.2743 46.937C16.6562 47.2258 17.4298 47.998 17.7188 48.3438C17.5743 48.1938 17.6218 48.2582 17.5751 48.24C18.2511 48.9717 17.959 48.5315 18.4885 49.0195C18.5869 49.2435 19.599 50.1557 20.0325 50.6511L20.7992 51.2324C20.3682 50.9228 21.4255 51.8974 21.4771 52.0577C22.0041 52.4974 22.4845 52.8277 23.2069 53.5767C22.8707 53.3048 23.8358 54.2901 23.788 54.3628C24.9946 55.6756 26.0469 56.2778 27.1578 57.553C27.1067 57.5301 26.8251 57.3294 27.16 57.692C27.4526 57.949 27.9282 58.4353 28.23 58.7217L28.2188 58.7142L28.236 58.7277C28.3835 58.8678 28.4821 58.9506 28.5001 58.9395C29.0644 59.3821 29.3851 59.5803 30.4289 60.517C30.4251 60.3758 29.5594 59.5696 29.174 59.2311L28.7917 58.9873C28.596 58.5857 27.8772 58.1155 27.684 57.854C28.4026 58.3241 30.0892 60.0583 31.1943 61.0059C30.6629 60.2869 29.312 58.9158 28.1084 57.7442L28.5918 58.3064L27.9669 57.6886L28.4969 58.361C27.9192 57.7615 27.3896 57.2735 26.8598 56.7392C27.4863 57.3583 27.6344 57.695 27.2957 57.3289C26.667 56.5699 26.5255 56.6523 25.9972 56.1196C26.2873 56.4202 26.6716 56.8041 26.3835 56.5968C25.4166 55.472 25.0789 55.2441 24.213 54.2082C24.216 54.4403 23.0086 53.0352 22.771 52.9872L23.2045 53.4367L22.1949 52.5729C21.4217 51.6187 23.0584 53.24 21.8054 51.8639C20.5994 50.6435 20.5097 50.7953 19.5434 49.8538C19.9273 50.0989 20.7451 50.7945 21.5156 51.5631L21.0808 51.066C21.3679 51.2724 22.4281 52.3414 22.9572 52.8747C21.9976 52.0778 23.3455 53.308 23.6849 53.767C23.8247 53.7743 23.2486 53.2233 23.9696 53.8335C23.3425 53.2135 23.2456 53.1283 22.4744 52.3131C24.1651 54.0514 24.2513 53.6211 25.6978 55.1674C24.9756 54.5098 25.8437 55.5019 25.8948 55.6164C26.2285 55.932 26.9052 56.5724 27.1936 56.8256L27.0431 56.4866C27.9593 57.3141 28.0608 57.8169 29.1693 58.7217C29.3578 58.795 28.3004 57.8207 28.4933 57.9898C29.9351 59.302 30.2786 59.9491 31.4337 61.2386C31.5318 61.2788 31.5782 61.2045 32.0576 61.5804C31.8655 61.5035 32.1537 61.848 31.6287 61.4103C32.0148 61.8416 32.543 62.2822 32.9271 62.6191C32.1067 61.738 33.3589 62.8841 33.5506 63.0062C33.9832 63.455 33.3585 62.9291 33.0698 62.6755C33.4095 63.0434 33.747 63.546 34.0346 63.661C33.9882 63.7349 32.8831 62.8335 32.2089 62.1954L32.6429 62.6456C32.3064 62.3729 32.2578 62.3073 31.8268 61.8607C32.2113 62.3354 32.117 62.3444 31.9735 62.2874C31.9257 62.2227 32.0193 62.3044 31.9739 62.2422C31.6346 61.8747 31.3458 61.6211 31.396 61.7346C30.9958 61.4983 31.8372 62.2733 32.0371 62.5522L32.5946 63.0735L34.6982 64.6445C35.5159 65.3959 35.8075 65.8095 36.3597 66.4356L36.5917 66.5276C37.2696 67.2149 37.894 67.8785 37.3667 67.5303C37.3653 67.4827 37.2694 67.3984 37.1239 67.2474C37.0946 67.2372 37.0536 67.2099 37.0049 67.1723C36.9864 67.1621 36.9746 67.1583 36.9587 67.1508L38.2328 68.3363C36.8857 67.2 38.0439 68.4 37.7118 68.3158C38.0077 68.5913 38.3035 68.8668 38.5994 69.1423L38.7092 69.2445L38.8522 69.4048L38.8916 69.4497C38.8956 69.4531 38.9078 69.4704 38.9195 69.4875L38.9516 69.5357C38.9925 69.5985 39.026 69.6559 39.0521 69.7033C39.1049 69.7991 39.1288 69.8547 39.126 69.8517C39.0671 69.7077 38.9943 69.5697 38.9086 69.4397C38.9021 69.4303 38.8954 69.4209 38.8888 69.4116L38.854 69.3622C38.8373 69.3373 38.8206 69.3123 38.8041 69.2873L38.7997 69.2801L38.7991 69.2794L38.7413 69.2158L38.7401 69.214L38.7377 69.2108L38.729 69.1995L38.7166 69.1811C38.7039 69.161 38.7072 69.1568 38.722 69.1648C38.7294 69.1688 38.7397 69.1758 38.7525 69.1851L38.7625 69.1927L38.7633 69.1933L38.8233 69.259L38.8246 69.2602L38.8272 69.2626L38.8322 69.2674L38.8542 69.2891C38.8864 69.3218 38.9229 69.3584 38.9678 69.4086C39.0517 69.5236 39.1378 69.6644 39.205 69.8065C39.2502 69.9268 39.2927 70.0515 39.3206 70.1682C39.3405 70.2868 39.3531 70.3979 39.3611 70.4888C39.3445 70.546 39.3321 70.6044 39.324 70.6635C39.3078 70.7521 39.2977 70.8695 39.2516 71.0023C39.2313 71.0691 39.208 71.1408 39.1815 71.2157C39.148 71.2878 39.1095 71.3633 39.0674 71.4408C39.028 71.5205 38.9757 71.5946 38.9153 71.6677L38.8243 71.7789L38.7766 71.8342L38.7706 71.841L38.6999 71.9044L38.6925 71.9107L38.6775 71.9235L38.5556 72.0281C38.4718 72.0894 38.346 72.1657 38.2344 72.2225L38.1473 72.2651L38.0736 72.291L37.9243 72.3386C37.825 72.3723 37.7235 72.3878 37.6217 72.3978C37.4199 72.4281 37.2212 72.4044 37.0406 72.3767C36.862 72.3317 36.6971 72.2846 36.5676 72.2077L36.6549 72.2289C36.5349 72.1625 36.3987 72.0974 36.2811 71.9912C36.2209 71.9418 36.1558 71.8858 36.0995 71.8332L36.0043 71.7346L35.5837 71.3115C35.2976 71.0295 35.0068 70.7521 34.7116 70.4794C34.7116 70.5254 33.9445 69.9895 33.562 69.7457C34.4104 70.6394 33.8636 70.1521 33.8907 70.2644C33.804 70.1708 33.6423 70.0085 33.6144 69.9985C33.4693 69.8939 33.7578 70.1933 33.7597 70.2405C34.2405 70.6858 34.7223 71.1434 35.1435 71.5247C35.3321 71.6972 35.525 71.8652 35.7218 72.0285L35.8743 72.1512C35.964 72.2221 36.0529 72.2854 36.1378 72.3404C36.3114 72.445 36.4837 72.5084 36.6236 72.5512C36.4282 72.446 36.2431 72.3526 36.0932 72.2267C36.0188 72.1693 35.9323 72.0992 35.8743 72.0496L35.7718 71.9645C35.6337 71.852 35.4894 71.7366 35.3445 71.5637C35.4846 71.6692 35.6203 71.7803 35.7513 71.8966C35.7862 71.9279 35.8217 71.9593 35.8577 71.9918L35.9223 72.05L36.0453 72.152C36.2082 72.2926 36.4065 72.398 36.617 72.492C37.0755 72.6712 37.5812 72.6927 38.0534 72.553C38.1158 72.5345 38.1782 72.5145 38.2404 72.4926C38.3163 72.4592 38.3929 72.4213 38.4678 72.3797C38.5428 72.338 38.6167 72.2926 38.6877 72.2446C38.7098 72.2297 38.7162 72.2243 38.7208 72.2205L38.7395 72.2056L38.777 72.1757L38.8526 72.1149L38.8621 72.1071L38.8669 72.1034L38.9558 72.0233L38.9602 72.0185L38.9953 71.9797L39.0648 71.9002C39.1565 71.7918 39.246 71.6804 39.3118 71.5486L39.3792 71.4478C39.4205 71.3868 39.4703 71.3033 39.507 71.2127C39.5468 71.1232 39.5829 71.0306 39.6082 70.9605C39.6316 70.8902 39.6403 70.8414 39.6403 70.8414L39.6501 70.7376C39.6535 70.6714 39.666 70.5766 39.6585 70.4639C39.6494 70.3352 39.6331 70.2072 39.6098 70.0804C39.571 69.9405 39.5331 69.8053 39.4667 69.6519C39.4039 69.5228 39.3316 69.3986 39.2504 69.2801L39.2106 69.224C39.195 69.202 39.1972 69.2074 39.1896 69.1979L39.0726 69.0672L38.9855 68.9718L38.9787 68.9656L38.9654 68.9532L38.9409 68.9309L38.9012 68.8943C38.8791 68.8739 38.8663 68.8626 38.8663 68.8626C38.9108 68.899 38.9474 68.9267 38.9793 68.9495L38.9911 68.9576L38.9967 68.9616L38.9971 68.962L39.079 69.0517L39.0798 69.0522L39.081 69.0534L39.0838 69.0556L39.1039 69.0718L39.1408 69.1001L39.2086 69.1477L39.2433 69.1724C39.259 69.1863 39.2949 69.2323 39.3218 69.2668C39.38 69.3431 39.445 69.4371 39.514 69.5614L39.5652 69.6594L39.6009 69.7483C39.625 69.811 39.6499 69.8814 39.674 69.9601C39.7561 70.2694 39.8439 70.7527 39.5995 71.3846C39.6405 71.3119 39.7374 71.1155 39.7755 70.8258C39.7928 70.6802 39.8114 70.5137 39.7882 70.332C39.7798 70.2377 39.767 70.1438 39.7498 70.0507C39.7256 69.9555 39.6967 69.8575 39.6631 69.7588C39.6236 69.5937 39.4099 69.2341 39.3003 69.1022L39.2054 68.9937L39.091 68.867L39.0645 68.8419L39.0116 68.7917C38.8748 68.6627 38.7417 68.5299 38.6124 68.3934L38.2797 68.2166C38.4212 68.2713 37.3611 67.2024 38.179 67.8976C38.4934 68.1796 38.8078 68.4614 39.1223 68.7433L39.1494 68.7676L39.1627 68.7795L39.1693 68.7855L39.1709 68.7869L39.2708 68.8965L39.2738 68.8997L39.3627 68.9971L39.4021 69.0403C39.4031 69.0391 39.4312 69.0783 39.4442 69.0965L39.4912 69.164C39.551 69.2524 39.5989 69.3337 39.6363 69.4011C39.7111 69.5377 39.7432 69.6162 39.7398 69.6106C39.744 69.6168 39.7125 69.5266 39.6489 69.3915C39.6126 69.3149 39.5732 69.2398 39.5307 69.1664L39.4215 68.9879L39.3358 68.8433L39.2307 68.7275L39.2293 68.7257L39.2269 68.7224L39.2221 68.7158L39.2132 68.7038C39.2078 68.6965 39.2028 68.6899 39.199 68.6843C39.1912 68.6735 39.1864 68.6676 39.1864 68.6676L39.2321 68.7114L39.2375 68.7168L39.3481 68.8377L39.3593 68.8508L39.3846 68.8807C39.4029 68.902 39.4231 68.9263 39.4456 68.9524L39.4627 68.9728L39.4713 68.9831C39.4774 68.99 39.4831 68.9973 39.4882 69.005C39.6073 69.1702 39.7103 69.3464 39.7956 69.5311C39.8425 69.6447 39.8726 69.7449 39.9064 69.8589L39.9509 70.0276C39.9605 70.0848 39.9684 70.1427 39.9754 70.2007C40.0496 70.6671 39.9437 71.1384 39.8203 71.4679C39.7492 71.6296 39.6774 71.7607 39.626 71.8504C39.5761 71.9414 39.5375 71.9856 39.5375 71.9856C39.5375 71.9856 39.5449 71.9739 39.5584 71.9538C39.572 71.9338 39.5893 71.9038 39.6078 71.8661C39.6457 71.7916 39.6938 71.6906 39.7364 71.5882C39.7768 71.4958 39.8082 71.3998 39.8303 71.3015L39.8612 71.1681C39.8371 71.2577 39.8104 71.3444 39.7819 71.4274C39.7516 71.5095 39.7115 71.5862 39.6744 71.6611C39.6363 71.7358 39.5967 71.8071 39.5566 71.8751C39.5148 71.9416 39.4667 72.001 39.4211 72.0599C39.375 72.1183 39.3284 72.1737 39.2821 72.2263L39.2474 72.2651L39.2299 72.284L39.2257 72.2888L39.2235 72.2912L39.1081 72.3948L39.1041 72.3982L39.0734 72.4237C39.0326 72.4568 38.9943 72.4878 38.9586 72.5173C38.7553 72.6673 38.4465 72.8311 38.2894 72.8735C38.1174 72.9255 37.9671 72.9693 37.8336 72.9815C37.5658 73.0106 37.3777 73.0032 37.2308 72.9745C37.0841 72.9482 36.9782 72.9279 36.8767 72.8857C36.7633 72.8427 36.651 72.7972 36.5397 72.7492C36.4123 72.6809 36.2415 72.6006 36.0348 72.4486C35.9802 72.406 35.9264 72.3624 35.8735 72.3177L35.7862 72.242L35.7413 72.2014L35.7202 72.1807L35.543 72.0091C35.3683 71.8449 35.1913 71.6833 35.0118 71.5243C34.3898 71.0924 33.8116 70.5384 32.7994 69.4883C33.5692 70.2109 32.9423 69.4991 33.2783 69.725C32.5536 68.9279 32.2187 68.7486 31.7859 68.3915C31.6406 68.1492 31.5427 67.9719 32.2177 68.6562C32.4065 68.6383 31.3023 67.7829 31.3466 67.6153C29.0831 65.3746 29.1912 66.1589 26.6821 63.4036L26.8241 63.4592C25.0928 61.8468 24.1761 60.8348 22.5886 59.3259L21.4747 58.003C21.7651 58.2578 22.5824 58.907 22.2916 58.5138C22.776 59.2144 23.4463 59.8029 24.028 60.4981C24.1221 60.5348 23.8819 60.2549 23.7858 60.1244C24.1717 60.5095 24.3164 60.7513 24.8465 61.2398C24.8447 61.1928 24.3146 60.6121 24.7482 61.0157L25.3753 61.7735C26.3377 62.6647 25.9962 62.0665 27.0575 63.1821C26.7936 63.0406 26.2909 62.7159 25.8535 62.3105C26.3395 62.8191 25.1513 61.6862 25.5705 62.1745C26.3796 62.7992 26.6556 63.2146 27.6681 64.1078C27.5433 64.0088 27.4962 63.9969 27.2552 63.7688L28.6047 65.184C28.3141 64.7909 29.8087 66.2645 29.7577 66.0587C28.3115 64.5586 28.6988 65.0369 27.0579 63.3201C27.5526 63.7761 28.2473 64.3076 28.6087 64.5212C28.6203 64.5387 28.6422 64.5654 28.6926 64.6182C29.0273 64.7969 28.7857 64.5158 28.9259 64.3865C28.0605 63.7184 27.6256 63.1293 26.663 62.2836C26.4184 62.1878 27.0948 62.9 27.565 63.3285L26.7166 62.5839L26.908 62.7062L24.9041 60.6678C25.2926 61.0455 25.466 61.1324 25.699 61.2993C25.4401 61.0368 25.2003 60.7599 24.9463 60.465C24.9336 60.5927 24.8471 60.6059 24.5931 60.3513C23.3048 59.0387 22.6426 58.2554 22.2416 57.6972L22.0847 57.5514C22.231 57.8404 21.0276 56.7605 20.5492 56.4324C20.6441 56.3782 19.9215 55.7202 19.5834 55.3087C19.2972 55.1953 19.4457 55.5782 19.8336 56.1025C20.7948 56.9007 20.4073 56.5147 20.9359 56.8181L22.4259 58.1498L22.0408 57.9038C22.7172 58.6353 23.4864 59.2194 23.3453 59.2562C22.9125 58.9447 22.3321 58.2968 21.9021 57.9882L22.337 58.4847C21.4247 57.753 21.9986 57.9813 20.9391 57.0508C21.2307 57.4906 20.8432 56.9663 20.3648 56.5922C20.6554 56.9854 22.1443 58.3159 21.7155 58.146C21.14 57.6864 20.1196 56.2619 19.3046 55.7073L19.3528 55.7262C18.3561 54.7034 17.9263 54.423 17.5006 54.0923C17.1111 53.6229 16.457 53.09 15.985 52.6306L16.0339 52.6048L15.3589 51.9657C15.7412 52.2097 16.1299 52.7346 16.7062 53.2873L16.7054 53.1482C17.2757 53.8785 17.837 54.1861 18.4032 54.6293C17.606 53.9576 16.3392 52.5464 16.0299 52.5095L15.6442 51.9872L15.4008 51.7958C15.1139 51.4061 15.5435 51.6683 16.218 52.3065C16.3147 52.4376 16.3632 52.503 16.3141 52.483C16.651 52.7558 16.9857 52.9807 17.7095 53.7313L17.2779 53.3759C18.1941 54.2953 19.0584 55.1001 19.4423 55.3453C18.1414 53.9962 16.8398 52.692 15.5879 51.4555C15.0621 51.2459 14.537 50.8999 14.203 50.8587C13.3382 50.0537 12.1805 48.9444 11.5064 48.1689L11.6022 48.2066C11.2969 47.8775 10.9749 47.5642 10.6373 47.2679C10.3006 46.8573 10.9715 47.4462 10.7309 47.1659L9.48169 46.0232C9.62196 46.031 10.6319 47.033 11.1163 47.5045C11.0202 47.4203 10.8266 47.25 10.8763 47.3171C11.4071 47.8978 12.559 48.8175 12.707 49.1548C12.9954 49.408 12.0842 48.6769 12.9994 49.5953C13.5796 50.2427 13.8659 50.3565 13.959 50.3919C14.0066 50.3646 13.0434 49.3811 13.4276 49.6728C12.9434 49.2014 12.7042 49.0598 12.1271 48.4151C12.6069 48.8825 13.3285 49.4478 13.5234 49.7568C14.5329 50.6204 14.5741 50.3118 14.1408 49.8622C14.191 50.0218 12.3585 48.2279 13.519 49.5226C12.8945 49.0434 11.8827 48.0402 11.1143 47.3651L11.1613 47.3838L10.2446 46.5089C10.3909 46.6149 10.6795 46.8683 10.7256 46.84L9.37995 45.7037C10.1483 46.3324 8.99226 45.226 8.70309 44.8795C8.51226 44.804 7.98409 44.363 8.41794 44.8588C8.90095 45.421 8.75446 45.1311 9.23587 45.6005L8.46991 45.0198L8.42075 44.9534L7.93995 44.6234C7.02509 43.7048 8.51406 44.8516 7.26269 43.753L7.31526 44.0056C5.96516 42.6358 4.32589 40.783 3.31472 39.8718C3.6382 40.0789 3.8477 40.1036 3.53666 39.6861C3.93519 40.1162 4.77439 40.9423 5.38041 41.525C5.47733 41.6565 4.51593 40.9037 3.88964 40.2387C4.03834 40.7144 5.61921 41.7577 5.5281 41.9995C7.12081 43.6968 6.92095 43.0621 8.22409 44.551C8.31821 44.4961 8.65895 44.9102 8.79861 44.9178C8.50583 44.3849 6.92115 43.0623 6.05426 42.1169C6.14877 42.1999 6.33901 42.3667 6.38837 42.3874C5.76028 41.7202 5.47493 41.4702 4.99312 41.0469L5.04148 41.1124C4.17499 40.3973 4.60643 40.5696 4.17218 40.0734C3.98014 39.9046 3.35245 39.2387 3.40201 39.3968L2.62723 38.4868L2.58449 38.6102C2.10268 38.1414 2.05352 37.983 1.5701 37.6043L1.47539 37.6585L2.63405 38.8604C2.00917 38.2886 2.39526 38.7651 1.7198 38.1257C2.12917 38.451 2.00917 38.3113 1.78643 38.0727C1.67505 37.9532 1.538 37.8093 1.42863 37.6864C1.37405 37.6247 1.32609 37.5685 1.29198 37.5235C1.27722 37.5041 1.26342 37.484 1.25064 37.4633C1.23733 37.4468 1.2267 37.4284 1.21913 37.4087C1.10495 37.3067 0.990571 37.2047 0.883213 37.0979L0.659266 36.8631L0.546289 36.7441C0.508563 36.7043 0.484482 36.6585 0.452776 36.6155L0.535653 36.726L0.637794 36.827L0.549499 36.7063L0.486691 36.59C0.447159 36.5158 0.403012 36.4527 0.380537 36.3828L0.299868 36.1917C0.276991 36.1294 0.262543 36.0658 0.242676 36.0027C0.197325 35.877 0.185285 35.7391 0.167024 35.575C0.169633 35.4927 0.174449 35.4032 0.183279 35.304C0.197326 35.2058 0.227627 35.1004 0.255319 34.9817L0.170034 35.2789C0.154181 35.3781 0.140536 35.4756 0.128495 35.572C0.127091 35.6682 0.131306 35.7634 0.135319 35.8582C0.143346 35.9525 0.16582 36.0435 0.18087 36.1363C0.22562 36.3176 0.28582 36.4987 0.38776 36.6659C0.428095 36.7543 0.497527 36.8334 0.56435 36.9165L0.773447 37.1714L1.16194 37.5446C1.24943 37.6243 1.33452 37.6984 1.43204 37.7812L1.20629 37.5892C1.17739 37.5659 1.08609 37.4804 1.01144 37.4115L0.761607 37.1792C0.586422 36.9796 0.376924 36.7708 0.249097 36.527C0.128495 36.2784 0.036991 36.0102 0.0129107 35.7507C-0.0480927 35.2275 0.122677 34.7988 0.199934 34.6156C0.308496 34.3442 0.533647 34.14 0.715052 33.9337C0.893046 33.7414 1.11759 33.4962 1.19826 33.4362C1.42221 33.2364 1.64716 33.0456 1.89037 32.8127C1.44689 33.2826 1.58375 33.2593 1.59519 33.3396C1.60081 33.3799 1.57512 33.446 1.42984 33.6127L1.01425 34.0703L0.646222 34.465C0.586423 34.5431 0.538664 34.6327 0.479065 34.7237C0.437125 34.8233 0.385552 34.9271 0.349632 35.0431C0.345418 34.9694 0.466423 34.6739 0.553714 34.5825C0.377928 34.7341 0.170436 35.1811 0.22261 35.7045C0.239667 35.965 0.340403 36.227 0.464015 36.4605C0.597059 36.6886 0.80134 36.8744 0.961474 37.0457L1.32669 37.3665C1.27733 37.2685 1.39552 37.3533 1.41218 37.3434C1.42241 37.3404 1.43425 37.3404 1.39111 37.2862C1.34535 37.2294 1.25485 37.1284 1.09452 36.9569L0.875587 36.684C0.940604 36.7782 0.915119 36.7748 0.824818 36.6961C0.802544 36.6762 0.774651 36.6525 0.746156 36.623L0.66368 36.5154C0.634784 36.4746 0.598262 36.432 0.569165 36.3808C0.543479 36.3272 0.515587 36.27 0.48649 36.2099C0.383948 35.9646 0.305486 35.6321 0.364282 35.2857C0.421674 34.9397 0.574182 34.601 0.849501 34.3562L0.839868 34.4851C0.833245 34.5468 0.838464 34.6092 0.840872 34.6102C0.834049 34.607 0.919735 34.5187 1.04676 34.3861L1.50428 33.9092L2.00054 33.4305L1.91445 33.5269C2.35813 33.2368 2.94368 32.4762 3.66188 31.8515C4.10616 31.327 6.0055 29.5078 5.07961 30.1825C5.75787 29.6554 6.19493 29.0355 6.83887 28.3647L5.96837 29.1335C6.85653 28.0846 6.63078 28.4167 7.27513 27.5111C7.3859 27.4651 7.58577 27.3191 7.46175 27.5095C8.77413 26.2188 10.6729 24.3998 11.3429 23.5434C12.2688 22.6344 12.5519 22.6286 13.7895 21.2919C14.0449 21.0052 13.4674 21.3933 14.3565 20.5777C14.423 20.5293 13.6203 21.482 14.5634 20.5269C15.1514 19.7638 16.2069 18.9948 17.011 18.0408C17.5095 17.6107 18.3057 16.7957 18.209 17.034C17.4547 17.7505 16.425 18.8022 16.3002 18.9944C16.3588 18.8504 15.7333 19.4741 16.244 18.901C15.0741 19.9548 15.5642 19.664 14.5263 20.6208C14.486 20.7178 15.1201 20.1887 15.3091 19.95C15.4115 20.0425 13.3829 21.9563 14.3899 21.1895C15.4679 20.1361 15.5814 19.6183 16.6113 18.8004C16.2992 19.2283 15.6677 19.7552 15.2985 20.3257L16.0996 19.6088L16.5818 18.9898L16.5633 19.0368C17.9981 17.7902 17.7069 17.7013 18.8616 16.4578C18.0964 17.0828 18.8531 16.1293 18.2871 16.6089C19.0795 15.7973 19.6835 15.2235 19.7869 15.3152C18.3609 16.8893 19.8049 15.5028 18.5104 16.9816C18.7739 16.7895 18.3222 17.4527 19.1626 16.6399C20.0275 15.6427 18.8016 16.8365 19.7016 15.8791C19.7654 15.8331 19.8314 15.7851 19.8131 15.8315C20.191 15.3554 20.3317 15.3532 20.7944 14.7823L20.6911 14.9239C21.3902 14.3478 21.3236 14.1623 21.939 13.6798C21.6463 13.8265 22.2491 13.2535 22.5453 12.8697C21.9597 13.3966 21.5533 13.5932 20.4577 14.6922C20.3822 14.8813 20.4944 14.8331 20.0698 15.3098L20.7788 14.5922C20.6337 14.7548 20.5309 14.8865 20.4007 15.0385L19.6833 15.6915C20.5141 14.7853 20.0529 15.1211 20.3638 14.6942C21.1867 13.9271 21.0063 14.0251 21.5267 13.5454C21.5604 13.679 23.2089 12.1611 24.1817 11.3031L23.7521 11.7228C23.138 12.438 24.2814 11.3367 24.3292 11.3351L24.7733 10.8106C24.6876 10.9072 24.5806 11.0524 24.8 10.8584C25.4427 10.1895 25.3209 10.1444 25.9623 9.47629C26.058 9.4733 25.5728 10.0948 26.0058 9.71335C26.1872 9.61374 26.7437 9.27488 27.5758 8.36728C27.6202 8.28839 27.8365 8.05372 28.0912 7.78558C28.0572 7.82423 28.0131 7.87164 28.0002 7.89116L28.6308 7.36564C28.2158 7.93479 27.5941 8.32066 27.1767 8.8928L27.2098 9.00933C26.8235 9.39341 26.3311 9.94682 26.1288 10.2251C26.7308 9.65279 26.8352 9.50995 27.4787 8.8402C27.6184 8.79578 27.1895 9.29162 27.1277 9.36313L27.1831 9.22289C26.3349 9.94125 26.0802 10.461 25.0879 11.4184C24.9372 11.562 25.0217 11.467 25.0404 11.4202C24.3212 12.2788 23.4443 12.9511 22.7704 13.8107L22.9817 13.5223L20.5861 16.2531L20.6072 16.2903C20.7384 16.1949 20.3529 16.5756 20.1348 16.7684L20.1354 16.767L18.8182 18.2603C19.0004 18.1226 19.1745 17.9746 19.3396 17.8171C19.4658 17.6234 20.435 16.7172 20.2279 16.7678C20.7097 16.3829 21.3428 15.6204 21.6916 15.3327C21.0597 15.8604 22.0231 14.8572 22.0819 14.7134C22.3269 14.5681 22.9404 13.8538 22.9305 13.9952C23.0626 13.8984 22.6008 14.2352 22.3932 14.5203C21.8455 15.1867 23.5633 13.4667 22.8627 14.2787C23.7818 13.2741 25.0743 12.031 26.009 10.9817L25.4243 11.5082C25.8768 11.0783 26.9096 10.0235 27.02 9.9775C26.6987 10.3118 26.3134 10.6927 25.9059 11.1236C25.9602 11.2182 26.9168 10.1191 27.0097 10.1185L28.1082 8.78223L27.5688 9.30955C27.8606 8.92965 29.0347 7.87303 29.8747 7.05985C29.5013 7.63398 28.6257 8.30492 27.7942 9.21233C27.199 9.88049 28.2844 8.92188 27.7089 9.54183C27.8885 9.41094 28.2772 9.01949 28.4445 8.80235L28.6996 8.58581C28.2575 9.20974 27.0366 10.3805 26.3178 11.2531C26.378 11.1736 26.4286 11.1024 26.4398 11.0698C25.7887 11.6445 25.1654 12.2662 24.5905 12.886C24.937 12.6001 25.0426 12.4559 25.2132 12.265C25.2587 12.2654 24.7027 12.8374 24.5138 13.0752C25.099 12.5483 24.6728 13.0264 25.041 12.6914C24.6998 13.074 24.399 13.3597 23.9465 13.7896C23.6818 13.9826 24.088 13.5529 23.9951 13.5537C23.5669 14.0338 23.248 14.1313 22.634 14.8466C23.541 13.9846 22.5003 15.1783 22.2256 15.5126L22.3775 15.3682C22.1501 15.701 21.9133 15.9405 21.6695 16.0845C22.0107 15.7018 22.3775 15.3682 22.2192 15.4162C21.9816 15.6568 21.7448 15.8965 21.4895 16.1827L21.697 15.8981L20.5159 17.0933C20.3756 17.329 20.1286 17.7099 20.0349 17.945C19.705 18.1854 19.3432 18.6171 19.0887 18.9034L19.1947 18.7579C18.6272 19.239 17.4914 20.4353 17.4356 20.5759C17.0214 20.911 19.819 17.6675 17.2022 20.3443C16.1929 21.3471 16.71 21.1047 16.181 21.7238C16.181 21.7238 16.1995 21.6776 16.1333 21.7254C15.6814 22.1543 15.6892 22.2501 15.3479 22.6326C15.6336 22.3902 16.0187 22.0099 16.1224 21.8674C16.0468 22.0563 15.1969 22.7762 14.9034 23.1571C15.2545 22.6332 14.0154 23.9719 14.3112 23.5882C13.3753 24.4044 12.5054 25.4066 12.1089 25.9296C11.4017 26.4116 11.0776 26.9826 10.0584 27.8926C10.2105 27.7482 10.464 27.4637 10.6839 27.2691C11.1655 26.6515 9.64403 28.2281 10.429 27.3212C10.2585 27.5125 10.4535 27.371 10.6287 27.1752C10.9466 26.8439 11.2225 26.5087 11.1087 26.5583L10.2577 27.2798L10.5161 26.9896L9.23286 28.0928C9.2144 28.139 9.34443 28.0452 9.41065 27.9966C7.9843 29.3375 6.44456 30.9612 5.21646 32.1577C5.20141 32.3695 4.47399 33.1338 3.64262 33.9823L3.0091 34.6271L2.69546 34.9477L2.57706 35.0708L2.50984 35.1443C2.42214 35.2393 2.33887 35.3303 2.32181 35.4375C2.30014 35.5413 2.32723 35.6387 2.37499 35.7023C2.30515 35.6365 2.24315 35.568 2.18696 35.5303C2.12937 35.4925 2.07178 35.4867 2.03124 35.5533C2.02562 35.4646 2.02281 35.3164 2.11331 35.17C2.15726 35.0969 2.22027 35.0247 2.28749 34.9451C2.32241 34.905 2.35673 34.8674 2.39867 34.8247C2.45826 34.7642 2.52027 34.704 2.58449 34.6443C2.69586 34.597 3.34583 34.0233 2.98703 34.4518C4.33834 33.0655 2.71412 34.55 3.04583 34.0743L2.66897 34.4626L2.33325 34.8176C2.19077 34.9861 2.03566 35.1198 1.96783 35.2929C1.93683 35.3746 1.92369 35.462 1.9293 35.5492C1.9349 35.6363 1.95912 35.7213 2.00034 35.7985C2.07599 35.9491 2.21766 36.0395 2.33084 36.13L2.47853 36.2441L2.71051 36.4443L3.17064 36.8507L3.17144 36.8981L3.94121 37.5745C3.36148 36.9726 3.50315 36.8902 4.22797 37.688L4.12944 37.6012C4.51813 38.0807 5.48055 38.9257 6.15399 39.609L6.68075 40.0028C7.3552 40.6873 7.26369 40.8365 7.41279 41.1284C8.47312 42.1978 9.18951 42.7121 10.0076 43.4072C10.298 43.8004 11.8865 45.4021 10.9743 44.6235C11.9848 45.5343 12.0731 45.0604 13.5699 46.8577L13.0899 46.4822C14.6814 48.041 17.0373 50.1788 17.7121 50.9551C16.946 50.5577 19.5007 53.1002 19.6024 53.5572C19.5651 53.4386 20.1727 54.015 20.2811 54.0791C20.3901 54.2291 20.5865 54.4646 20.8534 54.656C20.2729 54.0082 21.4729 54.9015 20.2219 53.8032C20.9413 54.2733 21.8058 54.9409 23.1063 56.2441L23.0118 56.2989L22.0006 55.2499C22.05 55.4083 21.522 54.876 21.2782 54.6847C23.1595 56.6356 20.8514 54.6086 22.8272 56.5507C23.0656 56.691 22.9225 56.5886 23.4527 57.077C23.2099 56.841 23.1152 56.8492 23.5014 57.2346L23.9331 57.5446C24.495 58.35 22.7154 56.4969 23.2137 57.1655C22.3958 56.4702 21.0495 55.1961 21.199 55.5342C22.404 56.7993 22.4931 56.4639 23.7461 57.7938L23.8434 57.9713C24.327 58.3964 24.4665 58.4042 24.7558 58.6126C24.7552 58.658 24.8538 58.7903 25.1401 59.0875C26.0062 59.7562 26.536 60.2449 27.3511 60.8457C25.3821 59.0474 25.8083 59.169 23.787 57.3018C24.1239 57.5745 25.52 58.9156 25.7078 58.8966L25.6145 58.953C26.2877 59.5441 26.9604 60.1353 27.7326 60.9505L27.204 60.5097C28.3119 61.5061 28.8459 62.3649 29.8035 63.0685C29.5159 62.7699 29.2747 62.5348 29.0817 62.3659C29.6586 62.8723 30.333 63.557 30.9112 64.1558L32.2568 65.2465C32.2091 65.2728 32.9813 66.044 32.5484 65.7318C33.3716 66.6621 33.8979 66.9631 34.4249 67.4494C35.2466 68.4231 33.609 66.7097 33.4173 66.7247C34.6241 67.9914 35.9714 69.267 36.7394 69.8955C36.5012 69.6292 36.3912 69.4941 36.4221 69.4889C36.4362 69.5497 36.9427 70.0403 37.2206 70.3178L37.461 70.4597L37.471 70.4712L37.4734 70.4742L37.4478 70.4997H37.4474L37.4459 70.5007L37.4417 70.5047C37.4379 70.5089 37.4344 70.5134 37.4313 70.5182C37.4309 70.5192 37.4331 70.5143 37.4315 70.517C37.4273 70.5254 37.4331 70.5121 37.4301 70.5196C37.4271 70.5302 37.4221 70.5401 37.4152 70.5487C37.413 70.5507 37.4034 70.5639 37.3998 70.5629C37.3968 70.5629 37.3938 70.5635 37.391 70.5647L37.3839 70.5674C37.3781 70.5645 37.3853 70.5788 37.3667 70.5617C37.3757 70.5712 37.3781 70.5728 37.3779 70.5714L37.3809 70.5718L37.3855 70.5738C37.3892 70.574 37.3872 70.5834 37.3926 70.5802C37.4028 70.573 37.4024 70.5866 37.4124 70.5754C37.4237 70.5798 37.4363 70.5505 37.4405 70.5505C37.4407 70.5445 37.4407 70.5411 37.4417 70.5407C37.4393 70.5407 37.4498 70.5411 37.4375 70.5425C37.4163 70.546 37.3967 70.5561 37.3817 70.5714L37.3709 70.584C37.3697 70.5862 37.3587 70.5995 37.3721 70.5874L37.4716 70.5065L37.522 70.4672L37.5224 70.467L37.4494 70.5326L37.4492 70.5324L37.449 70.532L37.4488 70.5316L37.4486 70.5306V70.5296C37.4494 70.5288 37.4526 70.5302 37.4588 70.5326C37.459 70.5306 37.474 70.5368 37.4857 70.5362C37.4937 70.5433 37.4851 70.5431 37.4933 70.5527C37.4963 70.5601 37.4875 70.5607 37.4917 70.5722L37.4921 70.5742L37.4923 70.5752L37.4925 70.5756C37.523 70.5479 37.4239 70.6372 37.5613 70.5139L37.5605 70.5145L37.5581 70.5166L37.5381 70.5342L37.4983 70.5692L37.4177 70.6392L37.4086 70.6469L37.4112 70.6421L37.4175 70.6332C37.4237 70.6254 37.4315 70.6189 37.4403 70.6141C37.4491 70.6093 37.4588 70.6063 37.4688 70.6053C37.4563 70.6114 37.4425 70.6144 37.4286 70.614C37.4147 70.6136 37.4011 70.6099 37.389 70.6031C37.3831 70.6011 37.3751 70.6015 37.3733 70.5921C37.3721 70.5908 37.3707 70.5897 37.369 70.589C37.3674 70.5882 37.3657 70.5878 37.3639 70.5878C37.3653 70.5919 37.353 70.5796 37.341 70.5674L37.3075 70.534L37.0538 70.283C36.8945 70.1276 36.7566 69.9975 36.6485 69.9085C36.8687 70.114 37.0846 70.324 37.2961 70.5384L37.3498 70.5933C37.3575 70.5991 37.3575 70.5965 37.3607 70.5993C37.3657 70.6019 37.3661 70.6111 37.3699 70.6155C37.3755 70.6162 37.3793 70.6194 37.3823 70.6254C37.3837 70.635 37.3912 70.6318 37.3952 70.6356C37.4002 70.6372 37.403 70.6483 37.409 70.6489C37.4205 70.6465 37.4313 70.668 37.4441 70.6639C37.4516 70.666 37.4586 70.6696 37.4648 70.6742C37.4712 70.6722 37.478 70.6722 37.4845 70.674C37.5162 70.6776 37.4736 70.6852 37.4736 70.7127L37.4724 70.7228C37.4718 70.727 37.4865 70.7141 37.4929 70.7105L37.5429 70.6758L37.5932 70.641L37.6187 70.6232L37.6314 70.6143L37.6378 70.6099L37.6394 70.6087L37.58 70.6621L37.5802 70.6619L37.5808 70.6611C37.5866 70.654 37.5939 70.6482 37.6021 70.6439C37.6129 70.6402 37.6223 70.6348 37.6251 70.6254C37.6629 70.6019 37.6715 70.5525 37.6797 70.4995C37.6866 70.4756 37.6705 70.4346 37.6721 70.4234C37.6725 70.4276 37.6753 70.4312 37.6799 70.4332C37.6827 70.4344 37.6857 70.4351 37.6888 70.4352H37.6942C37.6966 70.4354 37.6862 70.4244 37.6825 70.4196L37.6199 70.3433L37.5878 70.3045L37.5718 70.2846L37.5676 70.2798L37.6165 70.3338L37.6153 70.3326L37.6131 70.3302L37.6039 70.3212C37.3807 70.1015 37.1544 69.8849 36.9252 69.6714C36.9238 69.6238 37.3091 69.9164 36.9228 69.5317C36.0084 68.6596 36.5885 69.3987 36.2544 69.1744C36.6146 69.5021 36.8676 69.7527 37.0729 69.979C37.1754 70.0921 37.2661 70.1991 37.3526 70.3067L37.4797 70.4686L37.4799 70.469C37.5363 70.5312 37.403 70.3848 37.4171 70.3999L37.4175 70.4007L37.4183 70.4021L37.4201 70.4049L37.4235 70.4103L37.4303 70.4214L37.4437 70.4433L37.4706 70.488C37.4865 70.5158 37.5116 70.5523 37.5202 70.5742C37.5298 70.5832 37.4708 70.5354 37.4211 70.4959L37.3829 70.4659L37.3653 70.4519L37.3611 70.4485L37.3601 70.4477L37.3595 70.4473L37.3593 70.4471L37.3591 70.4469L37.4273 70.5218L37.4251 70.5204L37.4169 70.5153L37.3819 70.4929C37.3745 70.4449 36.9423 70.0134 36.8343 69.867L36.6423 69.8361C36.7827 69.7987 36.1573 69.0433 35.5789 68.5353C36.0651 69.1461 35.9197 68.9951 35.968 69.2445C35.1055 68.5791 35.1977 68.2924 34.237 67.5406C34.33 67.5763 35.1013 68.2996 34.4752 67.6345C33.9429 67.0982 33.9449 67.238 33.563 66.9027C34.0424 67.2312 33.9934 67.0733 34.5204 67.4219C35.4828 68.3586 34.9039 67.8046 35.8677 68.6971L35.1421 67.8522C35.9614 68.6417 35.8141 68.3508 35.9088 68.3885C34.6055 66.9448 34.7572 67.4687 33.8895 66.5687C33.4109 66.1946 34.7098 67.4042 33.9874 66.793C33.1687 65.9587 33.7498 66.6531 32.7866 65.7607L32.9764 65.8816C32.7358 65.5551 32.4001 65.3296 32.0632 65.0102C31.6785 64.673 32.2157 65.6732 30.7213 64.1997C30.8148 64.2516 30.8548 64.2652 30.8634 64.2566L32.9393 65.0806C31.2729 63.4283 29.6268 61.756 28.0014 60.064C27.7117 59.5347 29.3491 61.2027 29.2972 61.042L30.0694 61.8581C29.973 61.8649 28.3835 60.216 29.0118 61.0212C30.4564 62.3817 31.0358 63.0747 32.4776 64.2947C32.1848 63.7616 30.6972 62.5703 29.9231 61.6143C30.2799 61.9842 30.6011 62.2767 30.9176 62.5562L28.3524 59.9078L28.1142 59.7299C28.7261 60.3646 29.1483 60.8045 29.1996 60.8641C28.3811 60.0302 27.6142 59.403 27.4697 59.4369L27.614 59.5863L27.2863 59.3166C27.0991 59.1175 26.9114 58.919 26.723 58.7211ZM34.1345 5.1273C34.0926 5.18587 34.0629 5.23528 34.046 5.27671C34.0635 5.23348 34.0211 5.25898 34.1345 5.1273ZM33.8313 68.6957L35.4647 70.3668L36.2716 71.1936L36.4717 71.3978C36.4994 71.429 36.5506 71.4721 36.5981 71.5113C36.6473 71.5488 36.6906 71.5948 36.7462 71.6231C36.9573 71.7579 37.2057 71.8181 37.4516 71.8243C37.2302 71.8032 37.0165 71.747 36.8445 71.6308C36.7534 71.5818 36.68 71.5127 36.6104 71.444C36.5313 71.3731 36.5006 71.3205 36.4468 71.2603L35.9209 70.6212C35.612 70.2407 35.3967 69.9612 35.3359 69.8461C35.2749 69.7312 35.3684 69.7804 35.677 70.0575C35.8314 70.1959 36.0395 70.3913 36.3088 70.6515C36.4428 70.7822 36.5927 70.9286 36.7599 71.0912C36.8018 71.136 36.8433 71.1661 36.8855 71.2001L36.9493 71.2517L37.0243 71.29L37.1006 71.3302L37.1855 71.3547C37.2144 71.3625 37.2427 71.3735 37.2726 71.3794L37.3649 71.3878C37.3659 71.4003 37.6237 71.3641 37.6205 71.3551C37.4945 71.3693 37.3404 71.3766 37.1855 71.3177C37.1048 71.2995 37.033 71.2486 36.9571 71.2053L36.8532 71.1187C36.8169 71.0884 36.7765 71.0432 36.7376 71.0055C36.4036 70.6705 36.0656 70.3396 35.7234 70.0128C35.2144 69.6145 34.7022 69.22 34.1871 68.8295L33.4316 68.262C33.2341 68.1165 33.1089 68.0281 33.1087 68.0379C33.2538 68.2801 33.5913 68.508 33.9298 68.874L33.8313 68.6957ZM33.3405 67.6217C32.7334 66.9799 32.8368 67.1605 32.7045 67.0988L33.3766 67.7394C33.3021 67.648 33.2732 67.5946 33.3405 67.6217ZM32.7069 67.1709C32.7766 67.2416 32.835 67.303 32.8617 67.339L32.7069 67.1709ZM32.24 63.9233L32.3064 63.9851L31.8633 63.5291C31.9177 63.5942 32.0279 63.7122 32.24 63.9233ZM33.4259 65.272L33.6393 65.3559L33.2237 64.9284C33.2419 65.0047 33.2662 65.0792 33.4259 65.272ZM37.3035 69.5421C37.3872 69.5869 37.5043 69.6738 37.6348 69.7786L37.8387 69.9459L37.891 69.9897L37.9173 70.0117L37.9304 70.0228L37.9308 70.0232C37.9219 70.0132 37.9514 70.0455 37.9109 70.0013L37.9117 70.0021L37.9131 70.0037L37.9161 70.0069L37.9221 70.0128L38.0173 70.1105C38.0568 70.1467 38.0628 70.166 38.0767 70.1866C38.0897 70.2081 38.1078 70.2246 38.1218 70.2487C38.1417 70.3041 38.1782 70.3529 38.1892 70.4017C38.2023 70.4497 38.2207 70.4915 38.2338 70.5242C38.2422 70.5569 38.254 70.58 38.2691 70.5892C38.2815 70.6232 38.2982 70.5876 38.3118 70.5091L38.3084 70.3641C38.3016 70.3091 38.2813 70.2501 38.2677 70.1871C38.2538 70.1559 38.2368 70.127 38.2219 70.0961C38.2055 70.0656 38.1967 70.0342 38.166 70.0019L38.0873 69.9045L38.0674 69.88C38.0624 69.8749 38.0573 69.8698 38.0524 69.8646L38.0074 69.8192L37.6362 69.4427C37.6143 69.4467 37.5509 69.4078 37.454 69.3347C37.697 69.5981 37.8447 69.7887 37.6868 69.7409C37.1528 68.9732 37.0159 69.2441 36.3401 68.5122C36.0523 68.3512 37.0641 69.3546 37.3035 69.5421ZM16.8188 19.8078C16.8465 19.7956 16.9358 19.747 17.0574 19.6755L16.6036 20.2136C15.6964 21.0758 14.8568 21.6545 14.1679 22.5575C13.7662 22.9013 13.5073 23.042 13.2677 23.184C13.4543 23.0057 13.6303 22.8404 13.7804 22.7061C15.8596 20.3212 15.1191 21.7152 16.8188 19.8078ZM6.45299 29.7863C6.53908 29.6899 6.55733 29.6429 6.55733 29.6429C4.73727 31.775 3.15118 33.4438 2.07539 34.4992C2.3477 34.358 3.35746 33.4554 3.83987 33.0298L3.51017 33.5042L3.19994 33.6966L2.56623 34.4592C2.81205 34.314 3.3677 33.7418 3.78429 33.4042C3.80295 33.3576 4.9283 32.069 5.22128 31.6876L4.20208 32.5978C4.48422 32.3587 5.75125 31.067 6.24148 30.5427C6.21439 30.4959 5.27968 31.3103 5.24978 31.4999C5.09044 31.5489 6.10142 30.5441 5.40268 31.1206C6.10202 30.3096 7.3572 29.161 7.94416 28.6325L8.13139 28.6301C8.78135 28.0563 8.4348 28.1075 9.21781 27.4366C8.33908 28.3448 9.47085 27.3868 8.7645 28.1018C9.02717 27.9103 8.86684 28.1942 9.5748 27.4778C10.0474 26.7654 10.405 26.8061 10.8595 26.1403C11.2735 25.8052 10.5288 26.615 11.2847 25.8971C12.0685 24.9913 11.9734 24.9941 11.9369 24.8532C11.1187 25.6158 11.1617 25.8531 10.4913 26.4754L11.6289 25.0431C11.3696 25.2576 11.1912 25.4301 11.0497 25.5827C11.3002 25.3166 11.4978 25.0755 11.6551 24.8574L11.9078 24.5167C11.1757 25.2419 10.5242 25.8845 10.3715 25.9608L10.429 25.8178C10.1305 26.0355 9.73955 26.4854 9.57661 26.7099C8.92664 27.3647 8.33286 28.0737 8.13379 28.1601L8.34289 27.8741C7.54945 28.6858 7.46517 28.7803 6.45299 29.7863ZM21.5855 56.5964C21.2562 55.9549 20.8582 55.282 18.5541 53.0496L18.7442 53.2165C17.6965 51.9788 16.3759 51.1266 15.0906 49.6313C15.8277 50.2445 15.7857 50.2136 16.6701 50.8204L15.8987 50.1435C16.1863 50.2578 15.4169 49.5825 14.8877 49.0492L15.4608 49.4146C15.7514 49.7614 16.5703 50.5957 16.5693 50.5483C16.3763 50.3792 17.5351 51.7643 18.2586 52.4233C18.2566 52.2832 16.7638 50.8573 17.5313 51.3937C16.9073 50.8686 16.905 50.7288 16.2782 50.1549C16.9036 50.6814 16.5159 50.2027 16.997 50.5796L15.9852 49.6222C15.9826 49.5736 17.4755 50.9995 16.7513 50.111C16.3191 49.7542 15.3077 48.6594 15.214 48.715L15.2126 48.6679C14.4884 47.9167 14.781 48.4496 13.9143 47.5045C13.8659 47.5312 14.0134 47.7293 14.3469 48.045C14.6389 48.3018 14.7326 48.2926 15.3101 48.8452C15.506 49.1558 14.6333 48.159 14.9281 48.6482C15.0743 48.8913 16.4678 50.0923 15.9418 49.7909L15.2188 49.0411C15.1249 49.0966 14.5939 48.561 14.5484 48.6359C14.0688 48.2145 13.7266 47.7073 13.1997 47.3135C12.9597 47.1713 13.2043 47.593 12.4797 46.7957C11.9939 46.0933 10.2135 44.3688 9.53908 43.7305L8.9148 43.2058C8.91781 43.3002 10.0225 44.2929 9.59246 43.9847L8.6756 43.1101L8.77373 43.1504C8.48216 42.8482 8.14664 42.5766 7.85827 42.3233C8.19219 42.5476 8.81848 43.2123 8.76771 43.0071C8.36115 42.5729 8.32584 42.4802 7.92249 42.1097C8.01279 42.1884 8.09346 42.2531 8.09366 42.2316C7.27312 41.3499 7.18142 41.4991 6.94182 41.3119C5.98121 40.56 7.71339 42.2647 7.52316 42.2356L4.97245 39.7887C5.21205 39.9761 5.45285 40.1654 5.40409 40.0532C4.82496 39.4068 5.45065 39.9793 4.58335 39.1257C4.5382 39.2927 3.4295 38.1121 2.75766 37.5679C2.51626 37.2414 2.46649 37.1744 3.09118 37.792C3.09218 37.6555 2.21826 36.8408 1.94154 36.5537C1.90522 36.5244 1.86962 36.4943 1.83479 36.4633C1.75311 36.3907 1.64515 36.3077 1.55305 36.2089C1.50689 36.1595 1.45773 36.1116 1.42803 36.0545C1.39412 36.0001 1.35719 35.9497 1.34094 35.8975C1.37184 36.0624 1.38509 36.1118 1.31244 36.0403C1.29679 36.0214 1.27111 35.9967 1.25184 35.9592C1.23378 35.9214 1.21311 35.8742 1.18963 35.8174C1.16535 35.7608 1.16114 35.6899 1.14509 35.611C1.13828 35.5213 1.14178 35.4311 1.15552 35.3421L1.1483 35.2943C1.0881 35.5015 1.07886 35.7501 1.16335 35.9859C1.24241 36.2268 1.43224 36.4138 1.61164 36.6123L2.15826 37.186L2.66134 37.7014C2.98322 38.0241 3.27098 38.2954 3.48208 38.4576L3.29064 38.3358C4.25606 39.413 5.6461 40.4272 5.98804 41.0264C5.89252 41.0346 6.18208 41.2427 6.08937 41.2991L6.90269 41.9906L6.71185 41.8685L8.01279 43.1265L7.96483 43.1066L9.6035 44.3992C9.63761 44.3682 9.60791 44.319 9.83547 44.4968C10.0149 44.6469 10.1856 44.8069 10.3468 44.9762C10.348 44.977 10.348 44.9769 10.3482 44.9767L10.3478 44.9771C10.6532 45.2993 10.8163 45.5543 11.1852 45.9585L9.98316 44.7811C9.83045 44.7397 9.8744 44.8975 10.4208 45.5168C10.1794 45.2811 10.0361 45.2248 10.3259 45.5252C10.3729 45.5431 11.1436 46.2668 10.9022 45.9391C12.0567 47.0452 13.7475 49.0126 15.575 50.6176C14.2745 49.452 16.4923 51.6758 15.096 50.3347C15.9661 51.3746 16.0083 51.067 16.9719 52.0509C17.0232 52.1653 16.4439 51.5185 16.1565 51.3579C17.7458 53.0062 19.0414 53.9375 20.5865 55.5248L20.5845 55.6603C20.8915 55.9469 21.2317 56.2655 21.5855 56.5964ZM24.7813 59.5979L25.7263 60.4887L25.638 60.3969L26.6028 61.2439C26.0712 60.6627 25.7792 60.222 26.5964 60.9629C26.5019 60.9258 26.6955 61.1876 26.4069 60.9342C26.8893 61.4954 27.9984 62.6763 27.8032 62.2751C26.6979 61.3738 27.7017 61.9101 26.8374 61.1975C27.33 61.5513 27.7197 61.9994 28.151 62.3671C27.6768 62.0093 28.1192 62.5918 28.7188 63.2411C29.0084 63.4952 29.731 64.2443 30.2118 64.667C30.1141 64.4431 30.5453 64.7987 29.8227 64.0492C30.2333 64.409 30.6201 64.7948 30.9806 65.2041C30.7833 65.03 30.4496 64.7144 30.449 64.7598C30.6936 65.1192 31.0512 65.4692 31.2222 65.6886L31.6998 66.1424C31.6597 66.0912 31.6273 66.0447 31.6081 66.0075L32.1836 66.4671C31.462 65.8103 31.8936 66.1204 31.9398 66.0922C31.8465 66.1479 32.3754 66.5438 32.6144 66.7763L32.1792 66.1874C32.4675 66.3948 32.9997 67.1153 32.9481 66.9087C31.8886 65.7943 31.4556 65.3915 30.4454 64.4353L30.7843 64.8939C29.6277 63.8319 30.2032 64.1078 28.951 62.8709C28.3757 62.4109 27.0687 61.0099 26.9307 61.0957C27.1215 61.2173 26.2528 60.2246 25.774 59.8501C25.1983 59.4823 23.7537 58.0759 24.1402 58.5524C24.5255 58.9375 25.1022 59.3979 25.346 59.7728L24.5748 59.0496L25.0109 59.5935C24.7767 59.3214 24.7466 59.4001 24.7813 59.5979ZM36.1572 66.3553L36.1298 66.3252L36.1615 66.3575L36.1572 66.3553Z" ></path>
  </symbol>
</svg>
<svg class="icon">
  <use xlink:href="#icon-search"></use>
</svg><svg class="icon">
  <use xlink:href="#icon-youtube"></use>
</svg><svg class="icon">
  <use xlink:href="#icon-twitter"></use>
</svg><svg class="icon">
  <use xlink:href="#icon-pinterest"></use>
</svg><svg class="icon">
  <use xlink:href="#icon-facebook"></use>
</svg><svg class="icon">
  <use xlink:href="#icon-instagram"></use>
</svg><svg class="icon">
  <use xlink:href="#icon-profile"></use>
</svg><svg class="icon">
  <use xlink:href="#control-right-icon"></use>
</svg><svg class="icon">
  <use xlink:href="#control-left-icon"></use>
</svg>
