<svg width="0" height="0" class="hidden">
  <symbol xmlns="http://www.w3.org/2000/svg" viewBox="0 0 12 20" id="facebook">
    <path d="M10.7724 11.25L11.3429 7.63047H7.77634V5.28164C7.77634 4.29141 8.27456 3.32617 9.87189 3.32617H11.4933V0.244531C11.4933 0.244531 10.0219 0 8.61512 0C5.67799 0 3.75815 1.73359 3.75815 4.87187V7.63047H0.493286V11.25H3.75815V20H7.77634V11.25H10.7724Z"></path>
  </symbol>
  <symbol xmlns="http://www.w3.org/2000/svg" viewBox="0 0 21 20" id="instagram">
    <path d="M10.9977 15.1277C8.15941 15.1277 5.87 12.8383 5.87 9.99998C5.87 7.16165 8.15941 4.87224 10.9977 4.87224C13.8361 4.87224 16.1255 7.16165 16.1255 9.99998C16.1255 12.8383 13.8361 15.1277 10.9977 15.1277ZM10.9977 6.66628C9.16354 6.66628 7.66404 8.16131 7.66404 9.99998C7.66404 11.8387 9.15908 13.3337 10.9977 13.3337C12.8364 13.3337 14.3315 11.8387 14.3315 9.99998C14.3315 8.16131 12.832 6.66628 10.9977 6.66628ZM17.5313 15.3375C17.5313 14.6725 16.9957 14.1415 16.3352 14.1415C15.6703 14.1415 15.1392 14.677 15.1392 15.3375C15.1392 15.998 15.6748 16.5335 16.3352 16.5335C16.9957 16.5335 17.5313 15.998 17.5313 15.3375ZM20.9275 14.1236C20.8516 15.7257 20.4856 17.1449 19.3119 18.3142C18.1427 19.4834 16.7235 19.8494 15.1214 19.9297C13.4701 20.0234 8.5209 20.0234 6.86967 19.9297C5.27199 19.8538 3.85282 19.4879 2.67911 18.3186C1.50539 17.1494 1.14391 15.7302 1.06358 14.1281C0.969856 12.4768 0.969856 7.5276 1.06358 5.87637C1.13944 4.27422 1.50539 2.85505 2.67911 1.6858C3.85282 0.516552 5.26752 0.150604 6.86967 0.0702744C8.5209 -0.0234451 13.4701 -0.0234451 15.1214 0.0702744C16.7235 0.146141 18.1427 0.512089 19.3119 1.6858C20.4812 2.85505 20.8471 4.27422 20.9275 5.87637C21.0212 7.5276 21.0212 12.4724 20.9275 14.1236ZM18.7942 4.10464C18.4461 3.22993 17.7723 2.55605 16.8931 2.20349C15.5766 1.68134 12.4526 1.80184 10.9977 1.80184C9.54288 1.80184 6.41446 1.6858 5.1024 2.20349C4.22769 2.55159 3.55381 3.22547 3.20125 4.10464C2.67911 5.42116 2.7996 8.54511 2.7996 9.99998C2.7996 11.4549 2.68357 14.5833 3.20125 15.8953C3.54935 16.77 4.22323 17.4439 5.1024 17.7965C6.41892 18.3186 9.54288 18.1981 10.9977 18.1981C12.4526 18.1981 15.581 18.3142 16.8931 17.7965C17.7678 17.4484 18.4417 16.7745 18.7942 15.8953C19.3164 14.5788 19.1959 11.4549 19.1959 9.99998C19.1959 8.54511 19.3164 5.4167 18.7942 4.10464Z" ></path>
  </symbol>
  <symbol xmlns="http://www.w3.org/2000/svg" viewBox="0 0 20 18" id="twitter">
    <path d="M17.9441 4.92638C17.9568 5.10403 17.9568 5.28173 17.9568 5.45938C17.9568 10.8781 13.8325 17.1218 6.29441 17.1218C3.97207 17.1218 1.81473 16.4492 0 15.2817C0.329961 15.3198 0.647187 15.3325 0.989844 15.3325C2.90605 15.3325 4.67004 14.6853 6.07867 13.5812C4.27664 13.5431 2.76648 12.3629 2.24617 10.7386C2.5 10.7766 2.75379 10.802 3.02031 10.802C3.38832 10.802 3.75637 10.7512 4.09898 10.6624C2.22082 10.2817 0.812148 8.63196 0.812148 6.63958V6.58884C1.35781 6.89341 1.99238 7.08376 2.66492 7.10911C1.56086 6.37306 0.837539 5.11673 0.837539 3.6954C0.837539 2.93399 1.04055 2.23603 1.3959 1.62688C3.41367 4.11419 6.44668 5.73853 9.84766 5.91622C9.78422 5.61165 9.74613 5.29442 9.74613 4.97716C9.74613 2.71825 11.5736 0.878174 13.8451 0.878174C15.0253 0.878174 16.0913 1.3731 16.84 2.17259C17.7664 1.99493 18.6547 1.65228 19.4416 1.18274C19.137 2.13454 18.4898 2.93403 17.6395 3.44161C18.4644 3.35282 19.2639 3.12435 19.9999 2.80712C19.4416 3.61927 18.7436 4.34259 17.9441 4.92638Z" ></path>
  </symbol>
  <symbol xmlns="http://www.w3.org/2000/svg" viewBox="0 0 20 20" id="linkedin">
    <path d="M4.47664 20H0.33012V6.64702H4.47664V20ZM2.40115 4.82555C1.07523 4.82555 -0.000244141 3.72732 -0.000244141 2.40139C-0.000244131 1.7645 0.252759 1.1537 0.703108 0.703352C1.15346 0.253003 1.76426 0 2.40115 0C3.03804 0 3.64884 0.253003 4.09919 0.703352C4.54954 1.1537 4.80254 1.7645 4.80254 2.40139C4.80254 3.72732 3.72662 4.82555 2.40115 4.82555ZM19.9957 20H15.8581V13.4999C15.8581 11.9507 15.8269 9.96406 13.7023 9.96406C11.5464 9.96406 11.2161 11.6471 11.2161 13.3882V20H7.07402V6.64702H11.0509V8.46849H11.1089C11.6625 7.41936 13.0148 6.31219 15.0322 6.31219C19.2288 6.31219 20.0002 9.07565 20.0002 12.665V20H19.9957Z" ></path>
  </symbol>
  <symbol xmlns="http://www.w3.org/2000/svg" viewBox="0 0 20 16" id="telegram">
    <path d="M19.5497 1.45659L16.6523 15.0342C16.4337 15.9924 15.8637 16.2309 15.0536 15.7795L10.6389 12.5469L8.50873 14.5827C8.27299 14.817 8.07583 15.0129 7.6215 15.0129L7.93868 10.5452L16.1208 3.19851C16.4766 2.88334 16.0437 2.70873 15.5679 3.02389L5.45274 9.35271L1.09807 7.99836C0.150839 7.70449 0.133695 7.05713 1.29523 6.60568L18.3282 0.0852048C19.1168 -0.208664 19.8069 0.259822 19.5497 1.45659Z" ></path>
  </symbol>
</svg>
<svg class="icon">
  <use xlink:href="#facebook"></use>
</svg><svg class="icon">
  <use xlink:href="#instagram"></use>
</svg><svg class="icon">
  <use xlink:href="#twitter"></use>
</svg><svg class="icon">
  <use xlink:href="#linkedin"></use>
</svg><svg class="icon">
  <use xlink:href="#telegram"></use>
</svg>