<svg width="0" height="0" class="hidden">
  <symbol xmlns="http://www.w3.org/2000/svg" viewBox="0 0 32 21" id="email">
    <path d="M28 0H4C1.791 0 0 1.792 0 4V17C0 19.209 1.791 21 4 21H28C30.209 21 32 19.209 32 17V4C32 1.792 30.209 0 28 0ZM2 5.25L8.999 10.5L2 15.75V5.25ZM30 17C30 18.104 29.102 19 28 19H4C2.897 19 2 18.104 2 17L9.832 11.125L14.2 14.402C14.733 14.8 15.366 15.002 16 15.002C16.633 15.002 17.266 14.801 17.799 14.402L22.168 11.125L30 17ZM30 15.75L23 10.5L30 5.25V15.75ZM17.199 13.602C16.85 13.864 16.436 14.002 16 14.002C15.564 14.002 15.149 13.863 14.8 13.602L2 4C2 2.897 2.897 2 4 2H28C29.102 2 30 2.897 30 4L17.199 13.602Z" ></path>
  </symbol>
  <symbol xmlns="http://www.w3.org/2000/svg" viewBox="0 0 26 26" id="filter">
    <path d="M6.5 4.89206V2.4375C6.5 1.09362 5.40637 0 4.0625 0C2.71863 0 1.625 1.09362 1.625 2.4375V4.89206C0.6435 5.6355 0 6.79981 0 8.125C0 9.45019 0.6435 10.6145 1.625 11.3563V23.5625C1.625 24.9064 2.71863 26 4.0625 26C5.40637 26 6.5 24.9064 6.5 23.5625V11.3563C7.4815 10.6153 8.125 9.45019 8.125 8.125C8.125 6.79981 7.4815 5.6355 6.5 4.89206ZM3.25 2.4375C3.25 1.98819 3.61319 1.625 4.0625 1.625C4.51181 1.625 4.875 1.98819 4.875 2.4375V4.14375C4.61256 4.09094 4.34119 4.0625 4.0625 4.0625C3.78381 4.0625 3.51244 4.09094 3.25 4.14375V2.4375ZM4.875 23.5625C4.875 24.0118 4.51181 24.375 4.0625 24.375C3.61319 24.375 3.25 24.0118 3.25 23.5625V12.1046C3.51244 12.1591 3.78381 12.1875 4.0625 12.1875C4.34119 12.1875 4.61256 12.1591 4.875 12.1046V23.5625ZM6.39031 8.8075C6.37731 8.85056 6.36594 8.89281 6.3505 8.93587C6.27331 9.15038 6.17419 9.3535 6.04338 9.53388C6.04013 9.53875 6.03525 9.542 6.032 9.54688C5.89062 9.74025 5.72244 9.91169 5.5315 10.0563C5.52825 10.0596 5.52581 10.0612 5.52338 10.0628C5.32756 10.2107 5.109 10.3293 4.87419 10.4122C4.61987 10.504 4.34931 10.5625 4.0625 10.5625C3.77569 10.5625 3.50513 10.504 3.25 10.4114C3.01519 10.3285 2.79662 10.2099 2.60081 10.062C2.59838 10.0604 2.59594 10.0588 2.59269 10.0555C2.40175 9.91088 2.23356 9.73944 2.09219 9.54606C2.08894 9.54119 2.08406 9.53794 2.08081 9.53306C1.95 9.35188 1.85088 9.14875 1.77369 8.93506C1.75825 8.892 1.74688 8.84975 1.73388 8.80669C1.66969 8.58975 1.625 8.36306 1.625 8.125C1.625 7.88531 1.66969 7.65863 1.73469 7.44088C1.74769 7.39781 1.75906 7.35556 1.7745 7.31413C1.85088 7.09963 1.95 6.8965 2.08162 6.7145C2.08488 6.70962 2.08975 6.70638 2.093 6.7015C2.23438 6.50975 2.40256 6.33669 2.5935 6.19206C2.59675 6.19044 2.59919 6.18719 2.60162 6.18556C2.79662 6.04012 3.01519 5.92069 3.25 5.837C3.50513 5.746 3.77569 5.6875 4.0625 5.6875C4.34931 5.6875 4.61987 5.746 4.875 5.837C5.10981 5.9215 5.32837 6.04012 5.52419 6.18637C5.52662 6.188 5.52906 6.19125 5.53231 6.19288C5.72325 6.3375 5.89144 6.51056 6.03281 6.70231C6.03606 6.70719 6.04094 6.71044 6.04419 6.71531C6.175 6.8965 6.27413 7.09963 6.3505 7.31413C6.36594 7.35556 6.37812 7.39781 6.39031 7.44088C6.45531 7.65863 6.5 7.88531 6.5 8.125C6.5 8.36306 6.45531 8.58975 6.39031 8.8075ZM24.375 4.89206V2.4375C24.375 1.09362 23.2814 0 21.9375 0C20.5936 0 19.5 1.09362 19.5 2.4375V4.89206C18.5177 5.6355 17.875 6.79981 17.875 8.125C17.875 9.45019 18.5177 10.6145 19.5 11.3563V23.5625C19.5 24.9064 20.5936 26 21.9375 26C23.2814 26 24.375 24.9064 24.375 23.5625V11.3563C25.3557 10.6153 26 9.45019 26 8.125C26 6.79981 25.3557 5.6355 24.375 4.89206ZM21.125 2.4375C21.125 1.98819 21.4882 1.625 21.9375 1.625C22.3868 1.625 22.75 1.98819 22.75 2.4375V4.14375C22.4867 4.09094 22.2154 4.0625 21.9375 4.0625C21.658 4.0625 21.3866 4.09094 21.125 4.14375V2.4375ZM22.75 23.5625C22.75 24.0118 22.3868 24.375 21.9375 24.375C21.4882 24.375 21.125 24.0118 21.125 23.5625V12.1046C21.3866 12.1591 21.658 12.1875 21.9375 12.1875C22.2154 12.1875 22.4867 12.1591 22.75 12.1046V23.5625ZM24.2653 8.8075C24.2523 8.85056 24.2401 8.89281 24.2255 8.93587C24.1475 9.15038 24.0492 9.3535 23.9176 9.53388C23.9143 9.53875 23.9094 9.542 23.9062 9.54688C23.7648 9.74025 23.5966 9.91169 23.4065 10.0563C23.4032 10.0596 23.4 10.0612 23.3984 10.0628C23.2017 10.2107 22.984 10.3293 22.7492 10.4122C22.4949 10.504 22.2235 10.5625 21.9375 10.5625C21.6499 10.5625 21.3801 10.504 21.125 10.4114C20.8902 10.3285 20.6708 10.2099 20.4758 10.062C20.4726 10.0604 20.4709 10.0588 20.4677 10.0555C20.2759 9.91088 20.1077 9.73944 19.9664 9.54606C19.9631 9.54119 19.9583 9.53794 19.955 9.53306C19.825 9.35188 19.7251 9.14875 19.6487 8.93506C19.6324 8.892 19.6219 8.84975 19.6089 8.80669C19.5447 8.58975 19.5 8.36306 19.5 8.125C19.5 7.88531 19.5447 7.65863 19.6097 7.44088C19.6227 7.39781 19.6332 7.35556 19.6495 7.31413C19.7259 7.09963 19.8258 6.8965 19.9558 6.7145C19.9591 6.70962 19.9639 6.70638 19.9672 6.7015C20.1086 6.50975 20.2767 6.33669 20.4685 6.19206C20.4718 6.19044 20.4734 6.18719 20.4766 6.18556C20.6716 6.03931 20.891 5.92069 21.1258 5.83619C21.3801 5.746 21.6499 5.6875 21.9375 5.6875C22.2235 5.6875 22.4949 5.746 22.75 5.837C22.9848 5.9215 23.2026 6.04012 23.3992 6.18637C23.4008 6.188 23.4041 6.19125 23.4073 6.19288C23.5974 6.3375 23.7656 6.51056 23.907 6.70231C23.9102 6.70719 23.9151 6.71044 23.9184 6.71531C24.05 6.89813 24.1483 7.10125 24.2263 7.31494C24.2409 7.35638 24.2531 7.39944 24.2661 7.44169C24.3303 7.65863 24.375 7.88531 24.375 8.125C24.375 8.36306 24.3303 8.58975 24.2653 8.8075ZM15.4375 14.6421V2.4375C15.4375 1.09362 14.3439 0 13 0C11.6561 0 10.5625 1.09362 10.5625 2.4375V14.6421C9.581 15.3847 8.9375 16.5498 8.9375 17.875C8.9375 19.2002 9.581 20.3645 10.5625 21.1063V23.5625C10.5625 24.9064 11.6561 26 13 26C14.3439 26 15.4375 24.9064 15.4375 23.5625V21.1063C16.4182 20.3653 17.0625 19.2002 17.0625 17.875C17.0625 16.5498 16.4182 15.3855 15.4375 14.6421ZM12.1875 2.4375C12.1875 1.98819 12.5507 1.625 13 1.625C13.4493 1.625 13.8125 1.98819 13.8125 2.4375V13.8938C13.5492 13.8418 13.2779 13.8125 13 13.8125C12.7213 13.8125 12.4499 13.8409 12.1875 13.8938V2.4375ZM13.8125 23.5625C13.8125 24.0118 13.4493 24.375 13 24.375C12.5507 24.375 12.1875 24.0118 12.1875 23.5625V21.8546C12.4499 21.9091 12.7213 21.9375 13 21.9375C13.2779 21.9375 13.5492 21.9091 13.8125 21.8546V23.5625ZM15.3278 18.5575C15.3148 18.6006 15.3026 18.6428 15.288 18.6859C15.21 18.9004 15.1117 19.1035 14.9801 19.2839C14.9768 19.2887 14.9719 19.292 14.9687 19.2969C14.8273 19.4902 14.6591 19.6617 14.469 19.8063C14.4658 19.8096 14.4625 19.8112 14.4609 19.8128C14.2642 19.9607 14.0465 20.0793 13.8117 20.1622C13.5574 20.254 13.286 20.3125 13 20.3125C12.714 20.3125 12.4426 20.254 12.1875 20.1614C11.9527 20.0785 11.7341 19.9599 11.5383 19.812C11.5359 19.8104 11.5334 19.8088 11.5302 19.8055C11.3392 19.6609 11.1711 19.4894 11.0297 19.2961C11.0264 19.2912 11.0216 19.2879 11.0183 19.2831C10.8875 19.1019 10.7884 18.8988 10.7112 18.6851C10.6957 18.642 10.6844 18.5998 10.6714 18.5567C10.6072 18.3398 10.5625 18.1131 10.5625 17.875C10.5625 17.6353 10.6072 17.4086 10.6722 17.1909C10.6852 17.1478 10.6966 17.1056 10.712 17.0641C10.7892 16.8496 10.8883 16.6465 11.0191 16.4645C11.0224 16.4596 11.0273 16.4564 11.0305 16.4515C11.1719 16.2597 11.3401 16.0867 11.531 15.9421C11.5343 15.9404 11.5367 15.9372 11.5391 15.9356C11.7349 15.7893 11.9535 15.6707 12.1883 15.5862C12.4426 15.496 12.7132 15.4375 13 15.4375C13.286 15.4375 13.5574 15.496 13.8125 15.587C14.0473 15.6715 14.2651 15.7901 14.4617 15.9364C14.4633 15.938 14.4666 15.9412 14.4698 15.9429C14.6599 16.0875 14.8281 16.2606 14.9695 16.4523C14.9727 16.4572 14.9776 16.4604 14.9809 16.4653C15.1125 16.6481 15.2108 16.8512 15.2888 17.0649C15.3034 17.1064 15.3156 17.1494 15.3286 17.1917C15.3928 17.4086 15.4375 17.6353 15.4375 17.875C15.4375 18.1131 15.3928 18.3398 15.3278 18.5575Z" ></path>
  </symbol>
  <symbol xmlns="http://www.w3.org/2000/svg" viewBox="0 0 32 32" id="news">
    <path d="M29 0H7C5.343 0 4 1.342 4 3V5H3C1.343 5 0 6.342 0 8V28C0 30.209 1.791 32 4 32H28C30.209 32 32 30.209 32 28V3C32 1.342 30.656 0 29 0ZM30 28C30 29.102 29.102 30 28 30H4C2.897 30 2 29.102 2 28V8C2 7.448 2.448 7 3 7H4V27C4 27.553 4.447 28 5 28C5.553 28 6 27.553 6 27V3C6 2.448 6.448 2 7 2H29C29.551 2 30 2.448 30 3V28ZM19.498 13.005C19.223 13.005 18.998 12.781 18.998 12.505C18.998 12.229 19.223 12.005 19.498 12.005H27.498C27.775 12.005 27.998 12.229 27.998 12.505C27.998 12.781 27.775 13.005 27.498 13.005H19.498ZM19.498 10.005C19.223 10.005 18.998 9.781 18.998 9.505C18.998 9.229 19.223 9.005 19.498 9.005H27.498C27.775 9.005 27.998 9.229 27.998 9.505C27.998 9.781 27.775 10.005 27.498 10.005H19.498ZM19.498 7.005C19.223 7.005 18.998 6.781 18.998 6.505C18.998 6.229 19.223 6.005 19.498 6.005H27.498C27.775 6.005 27.998 6.229 27.998 6.505C27.998 6.781 27.775 7.005 27.498 7.005H19.498ZM16.5 27.004C16.776 27.004 17 27.229 17 27.504C17 27.781 16.775 28.004 16.5 28.004H8.5C8.224 28.004 8 27.781 8 27.504C8 27.229 8.224 27.004 8.5 27.004H16.5ZM16.5 24.004C16.776 24.004 17 24.229 17 24.504C17 24.781 16.775 25.004 16.5 25.004H8.5C8.224 25.004 8 24.781 8 24.504C8 24.229 8.224 24.004 8.5 24.004H16.5ZM16.5 21.004C16.776 21.004 17 21.229 17 21.504C17 21.781 16.775 22.004 16.5 22.004H8.5C8.224 22.004 8 21.781 8 21.504C8 21.229 8.224 21.004 8.5 21.004H16.5ZM27.5 27.004C27.775 27.004 28 27.229 28 27.504C28 27.781 27.775 28.004 27.5 28.004H19.5C19.223 28.004 19 27.781 19 27.504C19 27.229 19.223 27.004 19.5 27.004H27.5ZM27.5 24.004C27.775 24.004 28 24.229 28 24.504C28 24.781 27.775 25.004 27.5 25.004H19.5C19.223 25.004 19 24.781 19 24.504C19 24.229 19.223 24.004 19.5 24.004H27.5ZM27.5 21.004C27.775 21.004 28 21.229 28 21.504C28 21.781 27.775 22.004 27.5 22.004H19.5C19.223 22.004 19 21.781 19 21.504C19 21.229 19.223 21.004 19.5 21.004H27.5ZM27.5 15.004C27.775 15.004 28 15.228 28 15.504C28 15.78 27.775 16.004 27.5 16.004H8.5C8.224 16.004 8 15.78 8 15.504C8 15.228 8.224 15.004 8.5 15.004H27.5ZM27.5 18.004C27.775 18.004 28 18.229 28 18.504C28 18.781 27.775 19.004 27.5 19.004H8.5C8.224 19.004 8 18.781 8 18.504C8 18.229 8.224 18.004 8.5 18.004H27.5ZM9 13H16C16.553 13 17 12.553 17 12V5.004C17 4.451 16.553 4.004 16 4.004H9C8.447 4.004 8 4.451 8 5.004V12C8 12.552 8.447 13 9 13ZM10 6H15V11H10V6Z" ></path>
  </symbol>
  <symbol xmlns="http://www.w3.org/2000/svg" viewBox="0 0 18 26" id="light">
    <path d="M9 0C4.06325 0 0.0625 4.00075 0.0625 8.9375C0.0625 12.2127 3.059 15.6837 4.15019 18.7322C5.77763 23.2781 5.59725 26 9 26C12.4531 26 12.2216 23.2911 13.8498 18.7509C14.9443 15.6959 17.9375 12.1875 17.9375 8.9375C17.9375 4.00075 13.9351 0 9 0ZM11.106 22.0805L7.07762 22.5834C6.93381 22.1674 6.77944 21.6807 6.59175 21.0454C6.58931 21.0373 6.58606 21.0283 6.58444 21.0202L11.6122 20.3921C11.5407 20.6318 11.4643 20.8837 11.3977 21.1096C11.2913 21.4744 11.1962 21.7913 11.106 22.0805ZM6.348 20.2378C6.20013 19.7486 6.03356 19.2335 5.84831 18.6875H12.1582C12.0582 18.9792 11.9583 19.2717 11.8722 19.5479L6.348 20.2378ZM9 24.375C8.17694 24.375 7.79831 24.2799 7.37744 23.3594L10.8208 22.9279C10.3219 24.2718 9.95875 24.375 9 24.375ZM12.796 17.0625H5.21294C4.80831 16.185 4.32244 15.3075 3.84306 14.4487C2.78275 12.5515 1.6875 10.5893 1.6875 8.9375C1.6875 4.90506 4.96756 1.625 9 1.625C13.0324 1.625 16.3125 4.90506 16.3125 8.9375C16.3125 10.5771 15.2156 12.5499 14.1545 14.4584C13.68 15.314 13.1974 16.1899 12.796 17.0625ZM9 4.0625C9.22344 4.0625 9.40625 4.2445 9.40625 4.46875C9.40625 4.693 9.22425 4.875 9 4.875C6.75994 4.875 4.9375 6.69744 4.9375 8.9375C4.9375 9.16175 4.7555 9.34375 4.53125 9.34375C4.307 9.34375 4.125 9.16175 4.125 8.9375C4.125 6.24894 6.31144 4.0625 9 4.0625Z" ></path>
  </symbol>
  <symbol xmlns="http://www.w3.org/2000/svg" viewBox="0 0 26 26" id="favorites">
    <path d="M25.9033 10.2026C25.6783 9.55338 25.1006 9.07806 24.4051 8.97487L17.6402 7.969L14.6998 1.86387C14.3902 1.22281 13.728 0.8125 13 0.8125C12.272 0.8125 11.6098 1.22281 11.3003 1.86387L8.35982 7.969L1.59413 8.97487C0.899443 9.07806 0.321756 9.55338 0.0975057 10.2026C-0.125932 10.8534 0.0430682 11.57 0.533818 12.0591L5.49169 17.0089L4.34201 23.8753C4.22501 24.5667 4.52482 25.2606 5.11226 25.6652C5.43482 25.8871 5.81426 26 6.19369 26C6.50569 26 6.81851 25.9236 7.10207 25.7717L13 22.5964L18.8988 25.7717C19.1823 25.9236 19.4951 26 19.8063 26C20.1858 26 20.5652 25.8871 20.8886 25.6652C21.476 25.2606 21.7742 24.5667 21.658 23.8753L20.5075 17.0089L25.467 12.0591C25.9569 11.5692 26.1251 10.8526 25.9033 10.2026ZM19.1653 15.7324C18.7493 16.1468 18.5608 16.731 18.6558 17.3038L19.8063 24.1702L13.9076 20.9966C13.6248 20.8439 13.3128 20.7683 12.9992 20.7683C12.6872 20.7683 12.3744 20.8447 12.0916 20.9966L6.19288 24.1702L7.34338 17.3038C7.43925 16.731 7.25075 16.1468 6.83475 15.7324L1.87688 10.7827L8.64175 9.77519C9.26007 9.68338 9.79225 9.29662 10.0579 8.74494L13 2.64144L15.9413 8.74575C16.2078 9.29744 16.7391 9.68337 17.3566 9.776L24.1231 10.7835L19.1653 15.7324Z" ></path>
  </symbol>
  <symbol xmlns="http://www.w3.org/2000/svg" viewBox="0 0 26 26" id="search">
    <path d="M16.25 0.00408936C10.8656 0.00408936 6.5 4.36965 6.5 9.75409C6.5 11.4002 6.91194 12.9497 7.63344 14.3106L0.853938 21.0885L0.859625 21.0933C0.329875 21.6142 0 22.3357 0 23.1376C0 24.7212 1.28375 26.0049 2.86731 26.0049C3.66762 26.0049 4.38994 25.675 4.91075 25.1445L4.90912 25.1428L11.6862 18.3666C13.0479 19.0905 14.5998 19.5041 16.25 19.5041C21.6344 19.5041 26 15.1385 26 9.75409C26 4.36965 21.6344 0.00408936 16.25 0.00408936ZM3.89594 24.1288C3.63431 24.4002 3.27194 24.57 2.86731 24.57C2.07512 24.57 1.43325 23.929 1.43325 23.1368C1.43325 22.7322 1.60387 22.3706 1.87444 22.1082L1.86713 22.1017L8.42075 15.548C8.99356 16.3207 9.67606 17.0032 10.4471 17.5777L3.89594 24.1288ZM16.25 17.8799C11.7634 17.8799 8.125 14.2407 8.125 9.7549C8.125 5.26909 11.7634 1.6299 16.25 1.6299C20.7358 1.6299 24.375 5.26828 24.375 9.7549C24.375 14.2415 20.7358 17.8799 16.25 17.8799ZM16.25 4.06659C16.4734 4.06659 16.6562 4.24859 16.6562 4.47284C16.6562 4.69709 16.4734 4.87909 16.25 4.87909C13.5574 4.87909 11.375 7.06228 11.375 9.75409C11.375 9.97834 11.193 10.1603 10.9688 10.1603C10.7445 10.1603 10.5625 9.97834 10.5625 9.75409C10.5625 6.61296 13.1081 4.06659 16.25 4.06659Z" ></path>
  </symbol>
  <symbol xmlns="http://www.w3.org/2000/svg" viewBox="0 0 32 28" id="knowledge">
    <path d="M32 6C32 4.594 31.043 3.392 29.674 3.076L16.661 0.073C16.443 0.024 16.221 0 16 0C15.779 0 15.557 0.024 15.325 0.076L2.326 3.076C0.956 3.392 0 4.594 0 6C0 7.406 0.957 8.608 2.325 8.924L5 9.541V18C5 20.654 8.038 23 16 23C23.962 23 27 20.654 27 18V9.541L29.674 8.924C31.043 8.608 32 7.406 32 6ZM25 18C25 19.105 22 21 16 21C10 21 7 19.105 7 18V10.003L15.338 11.927C15.556 11.976 15.779 12 16 12C16.221 12 16.444 11.976 16.674 11.924L25 10.003V18ZM16.225 9.975C16.15 9.991 16.075 10 16 10C15.925 10 15.849 9.991 15.775 9.975L2.775 6.975C2.321 6.87 2 6.466 2 6C2 5.534 2.321 5.13 2.775 5.025L15.775 2.025C15.849 2.009 15.924 2 16 2C16.076 2 16.151 2.009 16.225 2.025L29.225 5.025C29.678 5.13 30 5.534 30 6C30 6.466 29.678 6.87 29.225 6.975L16.225 9.975ZM29 11C29 10.447 29.447 10 30 10C30.552 10 31 10.447 31 11V20C31 20.553 30.552 21 30 21C29.447 21 29 20.553 29 20V11ZM30 22C31.104 22 32 24.896 32 26C32 27.104 31.104 28 30 28C28.895 28 28 27.104 28 26C28 24.896 28.895 22 30 22Z" ></path>
  </symbol>
  <symbol xmlns="http://www.w3.org/2000/svg" viewBox="0 0 32 28" id="chats">
    <path d="M16 5C16.276 5 16.5 5.224 16.5 5.5C16.5 5.776 16.275 6 16 6C10.673 6 6 8.804 6 12C6 12.276 5.776 12.5 5.5 12.5C5.224 12.5 5 12.276 5 12C5 8.206 10.037 5 16 5ZM16 0C7.163 0 0 5.373 0 12C0 16.127 2.779 19.766 7.008 21.926C7.008 21.953 7 21.971 7 22C7 23.793 5.661 25.723 5.072 26.736C5.073 26.736 5.074 26.736 5.074 26.736C5.027 26.846 5 26.967 5 27.094C5 27.594 5.405 28 5.906 28C6 28 6.165 27.975 6.161 27.986C9.286 27.474 12.23 24.603 12.914 23.771C13.913 23.918 14.943 24 16 24C24.835 24 32 18.627 32 12C32 5.373 24.836 0 16 0ZM16 22C15.083 22 14.142 21.93 13.204 21.793C13.107 21.777 13.01 21.772 12.914 21.772C12.32 21.772 11.751 22.036 11.368 22.502C10.94 23.023 9.722 24.186 8.283 25.041C8.673 24.146 8.978 23.143 8.999 22.109C9.005 22.045 9.008 21.98 9.008 21.925C9.008 21.173 8.587 20.486 7.918 20.144C4.212 18.252 2 15.207 2 12C2 6.486 8.28 2 16 2C23.718 2 30 6.486 30 12C30 17.514 23.719 22 16 22Z" ></path>
  </symbol>
  <symbol xmlns="http://www.w3.org/2000/svg" viewBox="0 0 32 28" id="file">
    <path d="M31.924 16.455L27.922 1.449C27.68 0.596 26.889 0 26 0H6C5.11 0 4.32 0.596 4.078 1.449L0.076 16.455C0.025 16.637 0 16.82 0 17V24C0 26.209 1.791 28 4 28H28C30.209 28 32 26.209 32 24V17C32 16.82 31.975 16.637 31.924 16.455ZM30 24C30 25.102 29.102 26 28 26H4C2.897 26 2 25.102 2 24V17L6.001 1.999H25.998L30 17V24ZM23.742 4H8.258C7.805 4 7.408 4.305 7.291 4.743L3.846 16.743C3.767 17.044 3.83 17.364 4.02 17.61C4.21 17.856 4.502 18 4.812 18H9.38L10.827 20.895C11.167 21.572 11.859 22 12.617 22H19.383C20.141 22 20.832 21.572 21.172 20.895L22.619 18H27.187C27.498 18 27.791 17.855 27.98 17.609C28.169 17.363 28.232 17.043 28.154 16.742L24.709 4.742C24.592 4.304 24.195 4 23.742 4ZM24.281 16H22.619C21.857 16 21.172 16.422 20.83 17.105L19.383 20H12.617L11.17 17.105C10.828 16.422 10.143 16 9.381 16H5.334L8.258 5H23.742L26.666 16H24.281Z" ></path>
  </symbol>
  <symbol xmlns="http://www.w3.org/2000/svg" viewBox="0 0 25 32" id="map">
    <path d="M12.002 17.746C15.311 17.746 18.002 15.054 18.002 11.746C18.002 8.438 15.311 5.746 12.002 5.746C8.693 5.746 6.002 8.437 6.002 11.746C6.002 15.055 8.693 17.746 12.002 17.746ZM12.002 6.746C14.76 6.746 17.002 8.988 17.002 11.746C17.002 14.504 14.76 16.746 12.002 16.746C9.244 16.746 7.002 14.504 7.002 11.746C7.002 8.988 9.244 6.746 12.002 6.746ZM12 0C5.382 0 0 5.316 0 12.001C0 19.001 6.001 26.162 10.376 31.195C10.392 31.215 11.094 32 11.962 32C11.964 32 12.035 32 12.039 32C12.906 32 13.609 31.215 13.625 31.195C18.002 26.162 24.002 19.002 24.002 12.001C24.002 5.316 18.619 0 12 0V0ZM12.117 29.883C12.096 29.903 12.035 29.947 11.982 29.981C11.972 29.954 11.898 29.895 11.853 29.848C8.188 25.631 2 18.514 2 12.001C2 6.487 6.487 2 12 2C17.516 2 22.002 6.487 22.002 12.002C22.002 18.514 15.814 25.631 12.117 29.883Z" ></path>
  </symbol>
  <symbol xmlns="http://www.w3.org/2000/svg" viewBox="0 0 32 32" id="calendar">
    <path d="M29.334 3H25V1C25 0.447 24.553 0 24 0C23.447 0 23 0.447 23 1V3H17V1C17 0.447 16.552 0 16 0C15.448 0 15 0.447 15 1V3H9V1C9 0.447 8.552 0 8 0C7.448 0 7 0.447 7 1V3H2.667C1.194 3 0 4.193 0 5.666V29.333C0 30.806 1.194 32 2.667 32H29.334C30.807 32 32 30.806 32 29.333V5.666C32 4.193 30.807 3 29.334 3ZM30 29.333C30 29.701 29.701 30 29.334 30H2.667C2.299 30 2 29.701 2 29.333V5.666C2 5.299 2.299 5 2.667 5H7V7C7 7.553 7.448 8 8 8C8.552 8 9 7.553 9 7V5H15V7C15 7.553 15.448 8 16 8C16.552 8 17 7.553 17 7V5H23V7C23 7.553 23.447 8 24 8C24.553 8 25 7.553 25 7V5H29.334C29.701 5 30 5.299 30 5.666V29.333ZM7 12H11V15H7V12ZM7 17H11V20H7V17ZM7 22H11V25H7V22ZM14 22H18V25H14V22ZM14 17H18V20H14V17ZM14 12H18V15H14V12ZM21 22H25V25H21V22ZM21 17H25V20H21V17ZM21 12H25V15H21V12Z" ></path>
  </symbol>
  <symbol xmlns="http://www.w3.org/2000/svg" viewBox="0 0 32 31" id="dashboard">
    <path d="M27 4.496L5 4.5C4.447 4.5 4 4.943 4 5.496V19.496C4 20.049 4.447 20.496 5 20.496H27C27.553 20.496 28 20.049 28 19.496V5.496C28 4.943 27.553 4.496 27 4.496ZM27 19.5H5V5.496H27V19.5ZM29 0.5H3C1.343 0.5 0 1.842 0 3.5V23.5C0 25.154 1.338 26.494 2.99 26.498H13V27.715L6.758 28.526C6.312 28.637 6 29.037 6 29.496C6 30.049 6.447 30.496 7 30.496H25C25.553 30.496 26 30.049 26 29.496C26 29.037 25.688 28.637 25.242 28.525L19 27.715V26.498H29.01C30.662 26.494 32 25.154 32 23.5V3.5C32 1.842 30.656 0.5 29 0.5ZM30 23.5C30 24.051 29.551 24.5 29 24.5H3C2.448 24.5 2 24.051 2 23.5V3.5C2 2.948 2.448 2.5 3 2.5H29C29.551 2.5 30 2.948 30 3.5V23.5Z" ></path>
  </symbol>
  <symbol xmlns="http://www.w3.org/2000/svg" viewBox="0 0 20 20" id="arrow-left">
    <path d="M8.95833 10L11.3562 7.38958C11.5604 7.18333 11.5604 6.84896 11.3562 6.64167C11.1521 6.43646 10.8198 6.43646 10.6167 6.64167L7.69271 9.625C7.48854 9.83229 7.48854 10.1667 7.69271 10.3719L10.6167 13.3552C10.8198 13.5625 11.1521 13.5615 11.3562 13.3552C11.5604 13.15 11.5604 12.8156 11.3562 12.6083L8.95833 10ZM10 0C4.47708 0 0 4.47708 0 10C0 15.524 4.47708 20 10 20C15.5229 20 20 15.524 20 10C20 4.47708 15.5229 0 10 0ZM10 18.7021C5.19479 18.7021 1.29792 14.8062 1.29792 10C1.29792 5.19375 5.19479 1.29792 10 1.29792C14.8073 1.29792 18.7021 5.19375 18.7021 10C18.7021 14.8062 14.8073 18.7021 10 18.7021Z" ></path>
  </symbol>
</svg>
<svg class="icon">
  <use xlink:href="#email"></use>
</svg><svg class="icon">
  <use xlink:href="#filter"></use>
</svg><svg class="icon">
  <use xlink:href="#news"></use>
</svg><svg class="icon">
  <use xlink:href="#light"></use>
</svg><svg class="icon">
  <use xlink:href="#favorites"></use>
</svg><svg class="icon">
  <use xlink:href="#search"></use>
</svg><svg class="icon">
  <use xlink:href="#knowledge"></use>
</svg><svg class="icon">
  <use xlink:href="#chats"></use>
</svg><svg class="icon">
  <use xlink:href="#file"></use>
</svg><svg class="icon">
  <use xlink:href="#map"></use>
</svg><svg class="icon">
  <use xlink:href="#calendar"></use>
</svg><svg class="icon">
  <use xlink:href="#dashboard"></use>
</svg><svg class="icon">
  <use xlink:href="#arrow-left"></use>
</svg>